<svg width="1024" height="1536" xmlns="http://www.w3.org/2000/svg" xml:space="preserve" enable-background="new 0 0 1024 1536" version="1.1">

 <g>
  <title>Layer 1</title>
  <path id="svg_2" d="m277.93478,513.83911c0.97632,-18.57162 1.9126,-37.14548 2.94388,-55.71405c0.62583,-11.26916 0.78415,-22.60956 2.22776,-33.77899c3.46295,-26.79401 5.99102,-53.92792 18.47772,-78.56601c11.47223,-22.63644 30.88949,-35.19608 54.99041,-40.68353c18.56794,-4.22763 37.3798,-7.37983 56.07227,-11.06568c12.07312,-2.38064 22.43967,-8.49847 32.33392,-15.39801c8.99967,-6.27572 13.06766,-15.63705 14.99042,-26.10113c1.46762,-7.98714 2.69962,-16.02489 4.43735,-23.95223c0.95602,-4.36128 0.59366,-8.17263 -1.94513,-11.84121c-6.83563,-9.87754 -13.14026,-19.97538 -15.26645,-32.15071c-0.39807,-2.27958 -1.97037,-4.7132 -3.69681,-6.3346c-5.26019,-4.94016 -7.43969,-11.16466 -8.9545,-17.95029c-1.37118,-6.14222 -3.74505,-12.07457 -4.90689,-18.24441c-0.71283,-3.78554 -0.34066,-7.89759 0.22968,-11.76183c0.41623,-2.81985 1.18612,-5.74855 5.80813,-4.89479c2.99787,0.55376 4.73301,-5.75813 3.69632,-9.81978c-4.53118,-17.75261 -8.13546,-35.65263 -5.01828,-54.11543c2.07734,-12.30368 9.83997,-21.05374 19.29731,-28.10978c7.93032,-5.91679 16.75778,-10.62638 25.14428,-15.9395c2.52411,-1.5991 5.1442,-3.17076 7.30573,-5.19723c11.20486,-10.50477 24.58966,-10.83946 38.31613,-7.75287c4.3147,0.97022 7.96112,4.66756 12.08411,6.78439c9.46557,4.85989 19.24127,9.14932 28.51178,14.34701c11.43921,6.41365 20.21826,15.7085 25.57354,27.76634c1.56421,3.52204 2.61725,7.81683 2.21344,11.57577c-2.10333,19.58005 0.44703,39.60467 -5.52124,58.81795c-0.35382,1.13913 -0.0459,2.48381 -0.0459,3.84996c6.45618,-1.67267 7.61109,-1.04132 9.15332,5.3276c0.53931,2.22705 0.9621,4.70012 0.56104,6.90098c-2.21924,12.17688 -3.22217,24.767 -11.91571,34.8109c-2.70062,3.12015 -5.06506,6.683 -6.84198,10.39784c-1.18836,2.48421 -0.98914,5.6102 -1.54944,8.42137c-1.24853,6.26418 -1.68646,12.88706 -4.10962,18.6704c-3.07727,7.3448 -2.73321,14.69739 -2.33404,22.08944c0.42767,7.92012 1.09893,15.96102 2.96954,23.63076c1.79089,7.34295 5.15436,14.32055 8.09699,21.34546c0.45654,1.08984 2.38555,1.53357 3.58703,2.34503c17.14447,11.57892 36.77496,15.43259 56.71838,18.51663c25.04786,3.87341 48.49097,11.64487 66.91456,30.14487c9.05908,9.09656 14.44091,20.58133 19.54779,32.20865c7.17541,16.337 10.27496,33.60397 11.98449,51.15908c2.23401,22.94217 4.13282,45.91761 6.08167,68.88669c1.06585,12.56262 1.93756,25.14167 2.58728,37.89282c-1.36908,-0.3919 -2.48114,-1.53491 -3.47998,-1.44323c-7.21826,0.66223 -14.52576,1.04803 -21.58533,2.55237c-7.33447,1.56286 -14.54291,1.84204 -21.65204,-0.04047c-9.1037,-2.41065 -18.03448,-5.47467 -27.38775,-8.40827c-9.9444,-2.73663 -19.5102,-5.44232 -29.14368,-7.88107c-17.03064,-4.31149 -34.38092,-5.99408 -51.81476,-3.95492c-18.64966,2.18136 -36.07843,8.62317 -52.67407,17.36285c-9.67853,5.09692 -19.16016,10.70837 -29.22473,14.90186c-19.62534,8.17712 -39.66275,7.41821 -59.18213,-0.47071c-8.57645,-3.46618 -16.62668,-8.32934 -24.68585,-12.95855c-12.37687,-7.10932 -25.22275,-11.96393 -40.03284,-10.36209c-1.07059,-0.00553 -1.93207,0.18856 -3.17175,0.34176c-1.13144,0.04892 -1.88468,0.13876 -3.03214,0.14386c-2.11688,0.27246 -3.83957,0.62973 -5.91263,0.97452c-1.45749,0.36682 -2.56454,0.74612 -4.07531,1.10892c-10.71497,2.25653 -21.29731,3.71197 -31.26603,7.01782c-11.41412,3.78509 -22.35049,3.54034 -33.73065,0.67853c-7.20248,-1.81128 -14.63641,-2.68915 -21.94208,-4.11133c-2.29309,-0.44647 -4.50659,-1.30164 -6.75653,-1.96973m190.35852,-159.94366c-0.15966,0.3457 -0.31933,0.69137 -0.37634,1.03109c0,0 -0.03906,-0.09509 -0.59747,0.22208c-0.48798,0.93713 -0.97595,1.87427 -1.37936,2.81796c0,0 -0.0142,-0.08358 -0.56214,0.38294c-0.52963,1.85077 -1.0593,3.7015 -1.4798,5.53228c0,0 -0.06051,-0.09298 -0.64624,-0.02477c-0.13827,0.36325 -0.27658,0.72653 -0.32733,1.10189c0,0 -0.01352,-0.08731 -0.58298,0.36008c-1.72796,6.88825 -3.45593,13.77652 -5.29202,21.3501c0.03424,0.45975 0.06845,0.91949 0.00037,2.30435c0.01959,5.99466 0.03921,11.98929 -0.03137,18.87158c0.33905,3.44187 0.52606,6.90677 1.04443,10.32141c1.86844,12.30887 4.68274,24.1817 16.25375,32.09003c0,0 0.41925,0.07996 0.55912,0.00955c0,0 -0.08347,-0.13251 0.02572,0.43552c0.34363,0.16061 0.68729,0.32123 1.03345,0.38595c0,0 -0.09076,0.03098 0.29968,0.61451c10.00223,5.18789 20.30124,7.61093 32.01795,3.54843c5.11416,-3.44184 10.2283,-6.88367 15.93783,-10.47827c0.24915,-0.30835 0.49829,-0.6167 0.7052,-0.79895c0,0 -0.11834,-0.06064 0.48371,-0.30127c0.1864,-0.59424 0.3728,-1.18845 0.57836,-1.70462c0,0 -0.08032,0.00265 0.59296,-0.24121c1.46051,-3.61167 2.92102,-7.22336 4.39502,-10.74375c0,0 -0.09222,-0.00287 0.5202,-0.35892c0.1543,-0.91119 0.3086,-1.82238 0.47406,-2.63931c0,0 -0.09472,-0.00583 0.52204,-0.36127c0.14935,-0.91534 0.2987,-1.83069 0.46423,-2.64282c0,0 -0.10437,-0.00479 0.55634,-0.4024c0.50982,-1.73371 1.39752,-3.45215 1.46814,-5.20352c0.45129,-11.18708 1.06365,-22.38727 0.8695,-33.57007c-0.06836,-3.93949 -2.25598,-7.8422 -3.71258,-12.50699c-1.35462,-3.56806 -2.45978,-7.25562 -4.10297,-10.68543c-14.34564,-29.94351 -44.91601,-25.24969 -59.24747,-9.31073c0,0 -0.09158,0.41797 -0.03131,0.5607c0,0 0.13791,-0.07062 -0.43268,0.03385m119.89292,-7.66495c-0.3443,-0.15427 -0.68854,-0.30853 -0.93738,-0.4249c0,0 0.02173,-0.1004 -0.19653,-0.65243c-0.67432,-0.40277 -1.34857,-0.80557 -2.03992,-1.14829c0,0 0.04913,-0.03851 -0.33789,-0.49441c-0.54944,-0.21176 -1.09894,-0.42352 -1.64807,-0.55603c0,0 0.07739,-0.01731 -0.43305,-0.5485c-6.98639,-3.52911 -13.77429,-1.81201 -21.22851,0.87443c-5.68885,1.63098 -9.58862,5.40859 -11.6167,10.77099c-3.09473,8.18277 -4.04163,16.75562 -2.5625,25.39966c1.2904,7.54095 4.03577,14.55194 12.20532,16.99438c4.37616,1.30829 9.10877,1.64505 13.711,1.93186c10.3277,0.64361 18.25922,-4.22266 20.60339,-14.22345c1.58728,-6.77194 0.7945,-14.10178 1.17908,-22.00729c-1.54633,-4.46366 -3.09265,-8.92734 -4.72485,-13.35184c0,0 0.07348,0.05923 -0.01782,-0.5275c-0.33008,-0.16373 -0.66016,-0.32748 -0.9928,-0.38635c0,0 0.09149,-0.0513 0.02917,-0.64792c-0.33935,-0.15375 -0.67871,-0.30746 -1.03918,-0.35107c0,0 0.09704,-0.05613 0.04724,-0.65134m-153.46011,3.37286c-0.33753,-0.17984 -0.67505,-0.35968 -1.37925,-0.6141c-0.24649,-0.11838 -0.38845,-0.31302 -0.57519,-1.17868c-0.31067,-0.24317 -0.62134,-0.48633 -0.81336,-0.66818c0,0 -0.08047,0.10659 -0.29498,-0.50592c-0.59213,-0.19114 -1.18424,-0.38227 -1.6991,-0.59437c0,0 0.00403,0.07999 -0.20852,-0.42861c-0.31714,-0.16544 -0.63428,-0.33085 -0.83615,-0.53342c0,0 0.00286,0.12109 -0.28669,-0.52527c-4.11254,-3.00204 -8.47964,-5.20593 -13.65899,-4.41385c0,0 -0.02439,0.14511 -0.46344,-0.58972c-4.07443,0.06909 -8.18738,-0.17056 -12.20786,0.33108c-2.17004,0.27076 -4.18197,1.80918 -6.94342,3.06205c-2.11004,1.0412 -4.22006,2.08239 -6.98221,3.30212c-13.11892,9.20728 -19.70114,22.08365 -21.41745,38.63965c0.06098,9.68741 0.12192,19.37482 0.13126,29.88977c0.40674,2.27594 0.74448,4.5668 1.23196,6.82532c2.31284,10.71518 5.88764,20.62283 15.28946,27.53607c17.4422,12.82544 39.7432,11.19427 53.60517,-4.27258c0,0 0.27795,-0.05704 0.98501,-0.14441c0.56916,-0.93076 1.13828,-1.86152 2.37342,-3.0242c0.78576,-1.92023 1.5715,-3.84046 3.03579,-6.01755c0.45795,-1.56366 0.9159,-3.12732 1.96399,-5.19019c0.47107,-5.34106 1.43485,-10.70022 1.23914,-16.01675c-0.12934,-3.51435 -1.92349,-6.96738 -2.87409,-10.45093c0,0 -0.01504,0.09711 0.01569,-0.65039c-1.01767,-1.78293 -2.03534,-3.56586 -2.97794,-5.35107c0,0 -0.02502,0.07083 -0.00586,-0.68525c-0.73925,-0.75677 -1.47848,-1.51358 -2.6257,-2.42608c-0.23794,-0.19913 -0.3649,-0.45365 -0.42813,-1.45551c-0.67908,-0.47525 -1.35815,-0.9505 -2.55459,-1.61029c-0.46769,-0.54989 -0.93537,-1.09976 -1.68223,-2.23056c-0.38281,-0.18219 -0.76562,-0.36438 -1.76727,-0.74496c-0.41321,-0.27976 -0.8284,-0.55661 -1.23932,-0.83969c-11.89273,-8.19297 -24.63733,-8.1366 -36.41958,-0.09443c-1.64731,1.12439 -3.96973,1.25974 -7.10154,2.18406c1.46582,-7.30851 2.17402,-13.4491 3.97687,-19.24949c3.12583,-10.05688 11.31549,-14.66101 20.97061,-13.36944c7.39746,0.98956 10.58329,6.19836 13.59296,11.8121c3.66065,6.82788 8.18359,7.27909 12.73901,1.07974c0.78104,-1.06292 1.34165,-2.28784 2.65705,-3.62512c1.4498,-2.95074 3.80261,-5.92468 -0.13785,-8.73648c0,0 -0.01498,0.08518 -0.03232,-0.56109c-0.36404,-0.47565 -0.72806,-0.95133 -0.96802,-1.43314c0,0 -0.01178,0.12366 -0.17056,-0.38504c-0.27249,-0.21369 -0.54498,-0.42737 -0.77628,-0.64606c0,0 -0.02056,0.03604 -0.07284,-0.59521c-0.3906,-0.42899 -0.78119,-0.85797 -1.04559,-1.28986c0,0 -0.04612,0.11753 -0.13459,-0.52246c-0.64416,-0.50897 -1.28833,-1.01791 -1.81829,-1.55997c0,0 0.01309,0.11823 -0.17566,-0.40069c-0.30091,-0.19684 -0.60184,-0.39368 -0.79438,-0.60556c0,0 0.00113,0.1094 -0.23815,-0.42539m186.33712,99.37915c0,0 0.01148,-0.09811 -0.01452,0.68311c0.84906,1.09643 1.69812,2.19287 3.1427,3.50247c14.80328,12.33127 33.31976,4.89935 40.16418,-5.96942c6.23065,-9.89426 4.04511,-30.66998 -4.065,-39.47373c-3.57056,-3.87594 -7.74854,-6.12966 -12.97199,-6.63928c-13.75665,-1.34222 -23.08337,5.0315 -28.49817,18.81879c-3.48321,6.46048 -1.75409,13.30017 -1.22363,19.98352c0.16419,2.06882 1.73633,4.02588 2.56909,6.09488c0,0 -0.04236,-0.10428 -0.11615,0.61374c0.37067,0.79315 0.7414,1.5863 1.01349,2.38592m-38.15417,-9.01382c0,0 -0.00055,-0.09338 -0.52173,0.36865c-0.84943,2.20456 -1.69885,4.40912 -2.46503,6.63541c0,0 0.00055,-0.08597 -0.52374,0.43994c0.02667,2.41901 -3.57257,5.41141 0.60675,7.14761c6.06299,2.5188 11.32202,-0.25177 13.73175,-6.98956c11.06317,-32.9855 27.68463,-63.49045 42.27539,-94.90359c1.19641,-2.57581 1.59131,-5.52387 2.33844,-8.22611c-7.84979,-2.66733 -12.03625,-1.16299 -15.04205,5.43942c-10.78449,23.68851 -21.42597,47.44217 -32.37757,71.73069c-0.08801,0.39599 -0.17602,0.79199 -0.2207,1.26544c0,0 0.06067,-0.06476 -0.54162,0.27411c-1.43226,3.27099 -2.86451,6.54199 -4.21595,9.81826c0,0 -0.0213,-0.07818 -0.54681,0.3794c-0.86243,2.1987 -1.72486,4.3974 -2.49713,6.62033z" fill="#A4E3FC"/>
  <path id="svg_3" d="m675.93408,805.98633c0.008,28.31152 0.92353,56.65961 -0.21258,84.92511c-1.33344,33.17438 -4.18836,66.29858 -6.90418,99.40179c-1.33978,16.32965 -3.85083,32.56317 -6.31897,49.38745c-0.82654,3.2367 -1.57959,5.95313 -1.40796,8.60962c0.25434,3.93799 -1.17822,5.90955 -5.08892,6.18872c-6.4361,0.45948 -12.86579,1.01954 -19.30683,1.3855c-0.84631,0.0481 -1.7052,-0.92492 -2.62555,-1.198c-1.49542,-0.44384 -3.09534,-1.12365 -4.56482,-0.95446c-4.07947,0.46936 -8.1405,1.20532 -12.15668,2.07641c-2.17169,0.47095 -4.23681,1.43347 -6.79101,2.17371c-13.55646,-2.19214 -26.7193,-4.13904 -39.77087,-6.6615c-8.68085,-1.67761 -17.20289,-4.17725 -25.79169,-6.31433c0.00421,-0.00537 -0.00556,0.00354 -0.00128,-0.34961c-0.53766,-1.42725 -1.07959,-2.50159 -1.62146,-3.57581c-8.42481,-61.95758 -17.85144,-123.75519 -28.98072,-185.28094c-0.5299,-0.06726 -1.05975,-0.13452 -1.5896,-0.20178c-0.86141,3.32159 -1.91326,6.60699 -2.5523,9.97082c-3.33304,17.54541 -6.83557,35.06512 -9.76224,52.67969c-4.54517,27.35577 -8.90411,54.74731 -12.8826,82.19031c-2.03952,14.06842 -3.06921,28.28265 -4.59427,42.42694c-0.19549,1.81286 -0.62668,3.60058 -1.4111,5.56176c-1.44458,-3.90954 -4.05777,-5.03173 -8.04175,-4.48767c-9.45636,1.29126 -18.98108,2.11426 -28.40842,3.5763c-10.08398,1.56372 -20.08795,3.64367 -30.57699,5.49072c-6.62183,-0.2312 -12.9939,0.44006 -18.91861,-0.8866c-9.04199,-2.02441 -17.7486,-5.51672 -26.65372,-8.19958c-2.96893,-0.89441 -4.44,-2.2865 -4.09625,-5.57532c0.11288,-1.08008 -0.93478,-2.28149 -1.45172,-3.42737c-2.84207,-24.31866 -5.8422,-48.62054 -8.43823,-72.96545c-0.87833,-8.23663 -0.49085,-16.60059 -1.11545,-24.87366c-0.9075,-12.02057 -2.211,-24.01123 -3.33643,-36.01544c-0.10849,-1.15717 -0.2099,-2.31995 -0.21679,-3.48077c-0.18067,-30.5589 -0.34848,-61.11792 0.01882,-92.13562c13.80121,0.77148 26.71164,4.40881 40.40763,2.79492c15.3052,-1.80347 29.22821,-6.73895 42.86474,-13.49085c12.12632,-6.00421 24.3361,-12.06909 37.04502,-16.60559c13.89352,-4.95941 28.6499,-5.2522 43.23315,-3.01343c7.97119,1.22376 16.24664,2.31464 23.59314,5.36951c14.82453,6.16455 28.96375,13.95532 43.65558,20.46643c14.77539,6.54834 30.29767,11.65186 46.57507,10.77808c16.12226,-0.86542 32.13569,-3.75708 48.19684,-5.76001m-324.97537,93.57135c0.19006,0.14551 0.37231,0.30554 0.58044,0.41742c0.02466,0.0133 0.2775,-0.23566 0.27826,-0.36383c0.0167,-2.85114 0.01276,-5.70227 0.01276,-8.55347c-0.3136,-0.00207 -0.62723,-0.00409 -0.94083,-0.00616c0,2.57708 0,5.15411 0.06937,8.50604z" fill="#11B7DB"/>
  <path id="svg_4" d="m656.10523,575.04279c0.34777,16.94244 0.50219,33.89154 1.08813,50.82574c0.91333,26.39899 4.61011,52.47754 9.42651,79.05518c-0.47699,3.35174 -1.268,4.6278 -4.48755,5.43359c-10.07385,2.52136 -20.0819,5.50232 -29.83386,9.07379c-23.75232,8.69867 -47.28137,17.49072 -73.45062,11.71179c-12.38043,-2.73388 -24.20307,-6.2257 -34.67706,-13.59082c-4.99579,-3.51294 -9.95075,-7.19989 -15.33844,-10.01513c-10.5712,-5.52387 -21.50196,-10.3548 -32.15738,-15.72345c-15.93061,-8.02661 -33.22339,-9.68524 -50.54697,-10.69983c-16.32001,-0.95581 -32.25763,2.48932 -48.29401,5.56183c-3.52618,-1.71888 -6.8862,-3.11078 -9.39297,-4.14923c-0.11206,-2.50202 0.62704,-5.42524 -0.46375,-6.51221c-2.6828,-2.67334 -2.02194,-5.27802 -1.41271,-8.22284c1.19967,-5.79901 2.95422,-11.58661 3.24829,-17.44074c0.29986,-5.97003 0.81631,-11.9262 1.13513,-17.89367c0.06924,-1.29627 -0.07514,-3.21833 0.67398,-3.76752c6.58304,-4.8255 5.73297,-11.87799 6.57568,-18.75726c0.84223,-6.87513 -2.23706,-14.61982 3.80921,-20.57855c0.91674,-0.90351 2.009,-2.09083 2.12344,-3.23646c0.16492,-1.65032 -0.34192,-3.43554 -0.90906,-5.04064c-0.1319,-0.3733 -2.31323,-0.56385 -2.43716,-0.30494c-0.54633,1.14106 -0.67597,2.4795 -0.97797,3.74128c-0.0751,0.31378 -0.23001,0.60839 -0.41699,1.08831c-3.05417,0.9704 -4.46423,0.11817 -4.46655,-3.43316c-0.0018,-2.74085 0.91024,-5.55091 -2.14026,-8.10181c-1.33924,-1.11993 -0.48078,-5.2688 -0.00492,-7.93231c0.15802,-0.88422 2.23728,-1.42523 3.20679,-1.98865c0,3.44202 -0.05704,6.22473 0.01309,9.00427c0.11051,4.37836 4.01133,4.15991 6.55921,4.38446c0.92688,0.08167 3.09054,-3.58868 3.11783,-5.56878c0.07299,-5.29291 1.43368,-6.65802 6.78955,-5.73102c1.77893,0.30792 3.68936,-0.14404 5.87243,-0.24487c0.77643,0.01226 1.22006,0.02081 1.66904,0.39837c0.95334,5.85529 3.63791,2.95355 6.41681,1.61139c7.44342,1.05646 14.45184,2.25629 21.50021,3.13617c13.8078,1.72376 27.67478,1.71368 41.42447,-0.22424c3.99152,-0.56262 7.54221,-3.75141 11.53528,-4.90345c9.80157,-2.82794 19.14996,-7.38781 29.7681,-7.2799c3.62545,0.03686 7.23739,-2.41327 10.91073,-2.5918c14.46631,-0.70349 28.92542,-0.21344 42.87097,4.19214c15.38355,4.85992 30.87189,8.86572 47.15741,8.65704c2.98725,-0.03827 6.02845,0.10907 8.94904,-0.38964c11.34058,-1.93628 22.64258,-4.09864 33.94916,-6.17505c0.47052,3.67138 1.04407,8.14697 1.61774,12.62262z" fill="#11B7DB"/>
  <path id="svg_5" d="m415.02145,1053.01465c10.03888,-1.85462 20.04285,-3.93457 30.12683,-5.49829c9.42734,-1.46204 18.95206,-2.28504 28.40842,-3.5763c3.98398,-0.54406 6.59717,0.57813 7.87467,4.86341c0.29315,0.67907 0.29095,1.14404 0.00982,2.15503c-0.28732,1.06787 -0.29568,1.58996 -0.30404,2.11194c-1.20176,16.42687 -2.40351,32.85363 -4.15253,49.88854c-0.54721,12.32959 -0.54721,24.0514 -0.54721,37.15992c0.51141,-2.15332 0.69839,-2.94055 0.88534,-3.72779c0.55405,7.5824 1.06498,15.16822 1.67466,22.74622c0.58511,7.2727 1.8273,14.54126 1.77252,21.80408c-0.0661,8.75708 -0.56519,17.60974 -1.98422,26.23889c-3.92243,23.85229 -8.3895,47.61548 -12.70124,71.40295c-3.86816,21.34046 -7.95614,42.64221 -11.65033,64.01233c-1.2395,7.17041 -2.13156,14.49292 -2.20648,21.75598c-0.26272,25.46192 -0.43741,50.93482 0.06442,76.38977c0.2052,10.40857 1.98496,20.81629 3.49814,31.15869c1.06314,7.26661 -2.83941,12.74598 -5.73941,18.60291c-0.43985,0.88818 -2.89993,1.71667 -3.79226,1.27966c-4.163,-2.03894 -5.85138,0.50867 -7.31348,3.5033c-2.61179,5.34924 -5.69739,10.56958 -7.49909,16.19177c-4.27294,13.33362 -14.65872,18.87976 -26.99807,20.2909c-15.48459,1.77063 -31.11213,1.1737 -46.38608,-3.02588c-2.66168,-0.73194 -5.6304,-0.79969 -8.40671,-0.568c-5.85913,0.48902 -10.25732,-2.27038 -14.33804,-5.83398c-3.72867,-3.25623 -5.15409,-6.99866 -4.46158,-12.36096c1.38107,-10.69361 6.45993,-18.67139 15.09967,-24.63013c7.11371,-4.90637 14.05569,-10.16321 21.58456,-14.34509c15.60218,-8.66626 23.74668,-22.52112 27.28598,-39.10877c4.14011,-19.4032 3.3891,-39.12683 -1.46725,-58.26672c-4.51627,-17.79968 -5.66431,-35.97571 -8.49655,-53.95508c-2.13761,-13.57007 -5.50363,-26.94226 -8.03977,-40.45557c-1.83276,-9.76562 -3.2008,-19.6184 -4.4591,-30.14978c0.056,-5.65759 0.32623,-10.69507 -0.55747,-15.52136c-3.90036,-21.30224 -4.21429,-42.88415 -4.63098,-64.37646c-0.6524,-33.64978 -0.17477,-67.32129 -0.17584,-100.98365c-0.00006,-1.6687 0,-3.3374 0,-5.0061c-0.23816,0.00476 -0.47632,0.0094 -0.71451,0.01416c-0.18884,1.45618 -0.37772,2.91223 -0.56659,4.36841c-0.33368,-5.45886 -0.66739,-10.91773 -0.72528,-17.02258c1.90298,5.55773 2.93173,6.51696 10.01733,6.41381c9.92865,-0.14465 19.86731,-0.42138 29.76969,-1.10522c3.46277,-0.23901 6.83078,-1.85034 10.24206,-2.83496m39.68814,135.91577c2.78995,-1.46387 5.08268,-3.03577 1.28461,-6.59204c-0.00323,-0.44104 -0.00647,-0.8822 -0.30188,-1.95081c-2.57117,-1.45276 -5.14233,-2.90551 -8.44803,-4.35595c-1.41558,0.32116 -2.83114,0.64233 -5.02527,0.96435c-7.19427,0.37036 -4.89456,8.05628 -9.23507,11.91699c0,-2.80981 0,-4.8684 0.00586,-7.77099c0.05026,-0.99597 -0.12223,-2.06714 0.18466,-2.97644c3.77807,-11.1947 2.67468,-22.43799 1.05261,-33.85681c-0.93829,-6.60511 -1.3226,-13.52649 3.69586,-19.32801c1.75327,-2.02685 2.74839,-4.70947 4.14319,-7.1875c-2.40149,-0.76208 -4.15677,-1.31921 -5.91205,-1.87622c-0.07415,-0.57666 -0.14831,-1.15344 -0.22244,-1.7301c2.4772,-1.04089 4.95444,-2.08191 7.57385,-3.18262c0.57801,-3.41784 0.69944,-3.55847 -3.91226,-7.54162c-1.34741,-1.1637 -3.60165,-1.27735 -5.44022,-1.87232c0.13831,1.58692 0.42374,3.17859 0.37336,4.75952c-0.04993,1.56531 -0.23026,3.20105 -0.78965,4.63575c-0.20089,0.51538 -2.16183,1.01208 -2.47375,0.69238c-0.96265,-0.98694 -1.76709,-2.29651 -2.16565,-3.62146c-0.47192,-1.56873 -0.45721,-3.28394 -0.71774,-5.47717c-4.55765,4.03967 -4.54508,9.10913 -0.70157,13.58313c3.62219,4.21643 3.35397,10.00927 -0.79617,14.64331c-4.87772,-4.3357 -9.76685,-8.6814 -14.65595,-13.02723c-0.60489,0.59656 -1.20975,1.19312 -1.81464,1.78956c4.4076,5.15893 8.66474,10.45666 13.2623,15.4403c5.29395,5.73828 5.19275,13.01209 5.5369,20.1626c-1.61844,3.42786 -2.82721,6.82361 0.77258,10.69763c-0.66192,6.37708 -1.32385,12.75427 -2.54233,19.63233c-0.13903,1.50622 -0.27807,3.01233 -0.42697,5.39599c-0.49652,6.44873 -0.99307,12.89734 -1.54733,20.09546c-4.44559,-5.69983 -8.35846,-10.7168 -12.27621,-15.73584c5.24884,-5.21875 5.24462,-5.2102 -1.67374,-8.62646c-0.58231,-0.2876 -1.12457,-0.73072 -1.57004,-1.20899c-3.56171,-3.82458 -7.38275,-2.79492 -11.33389,-0.72461c-3.22129,1.68775 -3.69565,4.15686 -0.98673,6.25757c3.94919,3.06238 8.39048,5.48474 12.57178,8.25574c1.62466,1.07666 3.51715,2.0769 4.58383,3.60364c2.75287,3.94006 5.34012,8.03637 7.55316,12.29907c1.55637,2.99792 3.42035,6.3866 3.37152,9.57373c-0.23107,15.08472 -1.08563,30.15979 -1.68356,45.2395c-0.09302,2.34534 -0.00809,4.69763 -0.30667,6.37305c-1.25314,-3.56519 -2.31088,-7.21423 -3.79831,-10.67883c-3.58758,-8.35645 -7.23416,-16.69593 -11.21802,-24.86609c-0.69525,-1.42578 -3.15197,-1.99268 -4.7951,-2.95618c-0.35327,0.45825 -0.70654,0.9165 -1.05982,1.37488c0.72208,1.61975 1.46738,3.22973 2.16263,4.86096c6.6713,15.65185 13.33417,31.30713 19.98487,47.86694c0.31991,3.28675 0.86004,6.57068 0.90243,9.86097c0.04977,3.86205 0.13629,7.82556 -0.62988,11.57409c-1.41998,6.94727 -3.96607,13.69068 -5.03687,20.67346c-0.69012,4.5 -0.09427,8.77808 -6.79116,6.18628c2.29879,11.54529 10.52551,21.07923 9.01672,33.95899c-2.27023,-3.16992 -4.06793,-5.68006 -5.86563,-8.19031c-0.60862,0.25928 -1.21726,0.51855 -1.8259,0.77783c0.57614,2.36902 0.98447,4.79529 1.76956,7.0929c1.05393,3.0841 2.30887,6.10949 3.65372,9.08032c0.77533,1.71301 1.89795,3.26868 2.86429,4.89514c1.69961,-1.38745 3.66415,-2.56372 5.00073,-4.24048c0.8168,-1.02466 1.07245,-2.87305 0.8848,-4.25732c-0.8642,-6.375 -2.11792,-12.69788 -2.95191,-19.07605c-0.79025,-6.04395 -2.86459,-12.52332 -1.52533,-18.13074c4.22653,-17.69604 8.7746,-35.45984 15.23804,-52.42004c3.55386,-9.32544 7.45657,-19.63672 17.83676,-25.07642c3.36911,-1.76575 7.69583,-5.06396 5.9631,-10.39892c-1.57244,-4.84156 -2.20754,-10.56617 -9.53561,-10.85315c-3.95514,-0.15491 -9.51819,1.67443 -11.60266,5.12317c-4.16324,6.88806 -4.19421,10.93408 -1.08322,15.52954c1.05725,1.56176 1.41452,4.41479 0.75149,6.17211c-2.09399,5.55042 -4.70175,10.92298 -7.39926,16.21729c-0.59836,1.17456 -2.37957,1.74646 -3.61505,1.68994c-0.33627,-3.69641 -0.67255,-7.3927 -0.99853,-12.02392c-0.01947,-4.30689 0.37463,-8.66297 -0.13019,-12.91224c-2.15201,-18.11389 -0.21811,-35.78222 5.72699,-53.4392c4.12933,-4.90625 8.25867,-9.81238 12.97848,-15.00464c1.80805,-1.89978 3.61609,-3.79956 6.12158,-5.77869z" fill="#018FC3"/>
  <path id="svg_6" d="m544.98975,1045.0116c8.59307,2.13183 17.11511,4.63147 25.79596,6.30908c13.05157,2.52246 26.21441,4.46936 40.05407,6.95727c16.87592,4.00769 33.25611,2.28589 49.81238,1.51722c0.15802,2.27075 0.25971,3.73169 0.36139,5.1925c-0.18323,4.78089 -0.36639,9.56177 -1.06104,14.97376c-0.65783,1.60229 -0.93121,2.57336 -0.932,3.5448c-0.02454,28.8999 -0.03253,57.79968 0.01166,86.69958c0.00195,1.25159 0.52337,2.50256 0.80279,3.75379c-1.11462,19.23547 -0.97442,38.64624 -3.63165,57.66625c-4.21289,30.15479 -10.3678,60.03577 -15.54895,90.05896c-1.74646,10.12012 -2.87805,20.34559 -4.56848,30.47644c-1.65918,9.943 -4.07025,19.7721 -5.44226,29.74878c-2.52124,18.33326 -3.81092,36.92054 1.63848,54.82239c4.8086,15.79675 13.58484,29.31092 28.28565,38.37732c8.03149,4.95325 15.72211,10.60462 22.94824,16.67676c7.07916,5.94836 10.56049,13.95691 9.56555,23.49304c-0.78772,7.5492 -5.61255,13.05212 -13.17859,14.02258c-6.75769,0.86695 -13.682,3.85279 -20.38903,-0.47241c-0.42908,-0.27673 -1.41999,-0.15454 -1.88392,0.16614c-6.46289,4.46863 -13.80029,2.74146 -20.84075,2.96765c-4.66047,0.14978 -9.33008,-0.01477 -13.99488,0.03442c-14.49505,0.15271 -25.35455,-7.07702 -30.83551,-20.47644c-2.00488,-4.90148 -3.91772,-9.87231 -6.40051,-14.53015c-0.92035,-1.72668 -3.23071,-3.50879 -5.11945,-3.77844c-6.49444,-0.92712 -10.64599,-4.64062 -10.35986,-11.34778c0.44446,-10.41882 1.49896,-20.81299 2.35229,-31.21277c0.8122,-9.89904 2.47632,-19.79834 2.39631,-29.6864c-0.19275,-23.79187 -0.06897,-47.67773 -2.19116,-71.33569c-1.90412,-21.22705 -6.50611,-42.22278 -10.15149,-63.28027c-4.04139,-23.34436 -8.30048,-46.65162 -12.55628,-69.95826c-2.56702,-14.0581 -5.02637,-28.11059 -3.44134,-43.06579c0.53686,-4.48047 0.60687,-8.39588 0.67681,-12.31116c-0.04998,-0.44763 -0.09997,-0.89539 0.31165,-1.78528c0.81775,-1.63562 1.39612,-2.81128 1.4917,-4.02502c0.41418,-5.26013 1.00531,-10.53443 0.95593,-15.79822c-0.1972,-21.02991 -0.58276,-42.05859 -1.01739,-63.08508c-0.02289,-1.10767 -1.13666,-2.19263 -1.74256,-3.28821c-0.05468,-0.45703 -0.10937,-0.91394 0.16523,-2.00342c0.33844,-2.59314 0.5556,-4.5791 0.31884,-6.50952c-0.79907,-6.51343 -1.75927,-13.0072 -2.65783,-19.50842m56.44622,190.47741c-1.04065,1.10401 -2.08129,2.20789 -3.12194,3.31177c-0.16291,-1.25525 -0.51984,-2.52063 -0.45582,-3.76416c0.31031,-6.02295 0.73359,-12.04004 1.12336,-18.89355c0.34924,-2.7157 0.69848,-5.43128 1.61554,-8.7041c0.12939,-2.4845 0.25885,-4.96912 0.46759,-8.172c3.06054,-9.89295 11.23315,-16.21277 17.54455,-24.5459c3.64905,-4.51013 9.89954,-6.95886 10.74701,-13.75842c0.09558,-0.76673 1.9961,-1.15833 2.65186,-2.0304c3.59601,-4.78247 10.72699,-5.7876 12.65912,-12.60059c0.82403,-2.90564 2.46216,-5.77917 -0.52997,-7.4215c-3.28266,-1.80188 -7.25543,-2.84229 -10.97955,-3.0022c-0.9538,-0.04102 -3.05585,4.5116 -2.9983,6.91479c0.24323,10.15735 -4.14636,18.08863 -10.69183,25.26477c-1.66046,1.82056 -3.02002,3.91565 -5.21094,5.96363c-4.10675,3.19787 -8.21344,6.39575 -12.84375,10.00134c-0.16186,-1.95532 -0.31396,-3.36609 -0.39038,-4.78113c-0.86572,-16.02417 2.17053,-32.10974 -0.93011,-48.12207c-0.79248,-4.09228 0.02246,-8.01904 2.76703,-11.72644c2.95648,-3.99353 1.26269,-16.2771 -2.32502,-20.28357c-3.43536,3.01392 1.27137,11.69629 -6.61212,11.07215c-1.95868,-2.44056 -3.60644,-4.49366 -5.25421,-6.54676c-0.73773,0.35266 -1.47546,0.70545 -2.2132,1.05811c0.8274,3.89087 1.46815,7.83313 2.52344,11.66113c1.87152,6.78955 5.37866,13.43445 5.7508,20.27319c1.07446,19.74537 0.9284,39.55713 0.75726,59.78711c-0.16211,3.18531 -0.32422,6.37049 -0.76691,10.19385c-1.60943,2.98181 -3.21887,5.9635 -5.19989,9.63355c-3.88415,-7.09937 -7.55633,-13.8114 -11.21478,-20.49842c6.56244,-5.43518 8.34955,-12.93676 4.62823,-18.87976c-2.79156,-4.45825 -8.37536,-4.56323 -16.05017,-0.47864c-0.26062,2.08777 0.00782,4.22986 -0.81933,5.79163c-2.97046,5.6084 -2.71869,8.09656 3.25726,10.24353c4.63269,1.66443 6.26331,4.86792 7.63824,8.8252c0.7627,2.19519 1.66303,4.34314 2.41083,6.54297c3.1662,9.3142 6.29853,18.63989 9.44318,27.96142c-0.36804,0.11096 -0.73609,0.2218 -1.10419,0.33277c-2.24878,-1.72608 -4.49756,-3.45228 -6.7464,-5.17835c-0.19952,0.31543 -0.39904,0.63086 -0.59863,0.94629c2.54706,6.37158 5.09406,12.74328 7.64301,19.85071c1.12256,1.81738 2.24517,3.63489 3.77941,6.11877c1.58997,-1.96753 2.46277,-3.09863 3.38849,-4.18457c4.48041,-5.25635 8.3678,-11.25171 13.64881,-15.52136c4.56683,-3.69226 6.87793,-7.60986 7.58044,-13.68909c2.32862,-1.24646 4.68005,-2.45239 6.98078,-3.74853c3.69586,-2.08216 7.4718,-8.91858 6.45501,-12.61866c-0.41913,-1.52514 -2.29168,-3.6383 -3.64532,-3.74939c-6.02539,-0.49377 -9.17578,2.8108 -10.28766,9.02637c-0.46564,2.60278 -1.7854,5.22266 -3.30231,7.43274c-3.34271,4.86987 -7.05755,9.48425 -11.16852,14.69177m-12.43383,31.7489c-0.83283,-1.74694 -1.37983,-3.72241 -2.55628,-5.19482c-2.68829,-3.36413 -8.03418,-4.13537 -12.11035,-2.20398c-4.70789,2.23084 -5.39105,6.34302 -3.96149,10.4375c2.24366,6.42639 6.39453,11.37891 13.69275,13.44336c1.50653,1.79431 3.01306,3.58862 4.88471,5.81775c1.72992,-4.4989 2.67633,-8.26611 4.53997,-11.50574c2.92273,-5.08069 1.52906,-8.71679 -4.48931,-10.79407m7.30279,19.83021c-0.44018,1.30932 -0.88037,2.61877 -1.31586,4.86572c-0.32891,9.02209 -0.65777,18.04406 -1.64483,27.06396c-0.43836,-0.00574 -0.87677,-0.01159 -1.42218,-0.7948c-2.15412,-6.70862 -2.15991,-14.46386 -9.33716,-20.2312c-0.21039,2.32263 -0.52521,3.30151 -0.34326,4.17737c1.74805,8.41614 3.80945,16.77319 5.34289,25.22656c3.98407,21.96253 8.76429,43.82666 8.53772,66.3523c-0.02435,2.42065 1.35871,4.85547 2.08887,7.28369c0.72107,-0.07202 1.44208,-0.14404 2.16309,-0.21607c0.53619,-3.47265 1.33093,-6.92822 1.5614,-10.42102c0.78509,-11.8977 0.71405,-23.88989 2.17993,-35.69592c2.49371,-20.08411 6.534,-39.87427 15.16089,-58.44629c1.50946,-3.24951 2.11303,-6.9198 3.13495,-10.39575c-0.66053,-0.32288 -1.32111,-0.64575 -1.98163,-0.96875c-1.77319,2.4115 -4.16394,4.5835 -5.2088,7.27734c-3.7746,9.73169 -7.08588,19.6427 -10.59815,29.47669c-0.71936,2.01428 -1.55127,3.98816 -2.3313,5.98071c-0.97534,-4.2196 -1.07031,-8.13525 -0.95477,-12.04455c0.21326,-7.2168 0.38513,-14.4419 0.90314,-21.6399c0.26922,-3.74072 0.43707,-7.84057 2.07367,-11.05322c2.84015,-5.5752 6.74371,-10.61597 10.30969,-15.80652c0.55536,-0.80847 1.6839,-1.22326 3.64392,-2.578c-1.52582,6.18347 1.98798,5.44775 5.07837,5.57617c1.55218,0.06458 3.63245,0.19006 4.51776,1.1604c2.77161,3.03772 4.71192,0.83081 6.14002,-0.93945c3.03936,-3.76758 2.51098,-7.96216 0.57904,-12.18628c-1.84967,-4.04468 -5.0011,-6.24548 -9.13916,-4.91663c-3.77881,1.2135 -8.31012,2.87268 -10.46692,5.82691c-6.52777,8.94128 -12.06366,18.60669 -18.67133,28.06653z" fill="#018FC3"/>
  <path id="svg_7" d="m398.00351,565.98541c-1.85031,0.10456 -3.76074,0.55652 -5.53967,0.2486c-5.35587,-0.927 -6.71656,0.43811 -6.78955,5.73102c-0.02729,1.9801 -2.19095,5.65045 -3.11783,5.56878c-2.54788,-0.22455 -6.4487,-0.0061 -6.55921,-4.38446c-0.07013,-2.77954 -0.01309,-5.56225 -0.01309,-9.00427c-0.96951,0.56342 -3.04877,1.10443 -3.20679,1.98865c-0.47586,2.66351 -1.33432,6.81238 0.00492,7.93231c3.0505,2.5509 2.13846,5.36096 2.14026,8.10181c0.00232,3.55133 1.41238,4.40356 4.46655,3.43316c0.18698,-0.47992 0.34189,-0.77453 0.41699,-1.08831c0.302,-1.26178 0.43164,-2.60022 0.97797,-3.74128c0.12393,-0.25891 2.30526,-0.06836 2.43716,0.30494c0.56714,1.6051 1.07398,3.39032 0.90906,5.04064c-0.11444,1.14563 -1.2067,2.33295 -2.12344,3.23646c-6.04627,5.95873 -2.96698,13.70342 -3.80921,20.57855c-0.84271,6.87927 0.00736,13.93176 -6.57568,18.75726c-0.74912,0.54919 -0.60474,2.47125 -0.67398,3.76752c-0.31882,5.96747 -0.83527,11.92364 -1.13513,17.89367c-0.29407,5.85413 -2.04862,11.64173 -3.24829,17.44074c-0.60923,2.94482 -1.27009,5.5495 1.41271,8.22284c1.09079,1.08697 0.35169,4.01019 0.46375,6.51221c2.50677,1.03845 5.86679,2.43035 9.13528,4.42773c-5.08932,1.94452 -10.08706,3.28351 -15.04507,4.61182c-0.50629,-1.72846 -0.91211,-3.11384 -1.3179,-4.49927c2.27646,-21.42999 5.36032,-42.81299 6.61319,-64.30267c1.3851,-23.75812 1.15793,-47.6131 1.49682,-71.42786c0.11771,-8.27173 -0.13867,-16.54987 -0.31546,-24.82318c-0.02261,-1.05634 -0.59927,-2.10077 -1.96377,-3.23041c-2.33554,8.86774 -5.2576,17.62897 -6.8906,26.62427c-4.02484,22.17004 -7.31594,44.47223 -11.16983,66.6748c-3.59775,20.72699 -7.20196,41.46314 -11.40832,62.07178c-6.79205,33.27667 -14.15985,66.43549 -21.11441,99.67956c-2.31092,11.04633 -4.7923,22.13752 -5.83423,33.33484c-0.52164,5.6059 1.18448,11.83002 3.33056,17.1955c6.19471,15.48773 11.35532,31.1181 11.97818,47.96509c0.17768,4.80456 1.44983,9.68908 0.84897,14.36059c-0.41403,3.2193 -2.85467,6.43347 -5.13531,8.98285c-0.59226,0.66205 -5.19528,-0.58905 -5.86804,-1.97504c-2.41544,-4.97583 -4.26874,-10.29687 -5.70294,-15.65643c-1.45176,-5.42505 -2.09,-11.0639 -3.23636,-16.57751c-0.24735,-1.18964 -1.14353,-2.24439 -1.98084,-3.81006c-0.85284,0.94183 -1.59015,1.40692 -1.80929,2.04895c-6.17255,18.08191 -3.6857,35.17724 5.39248,51.7793c5.03235,9.20306 12.93375,15.51867 20.50495,22.20501c2.73233,2.41291 4.362,5.49488 2.75491,8.19873c-1.34222,2.25824 -4.74323,4.08271 -7.49298,4.54285c-5.06015,0.84686 -9.91953,0.09949 -14.42801,-3.49329c-7.75482,-6.17956 -16.73306,-10.93042 -24.00537,-17.58416c-11.04694,-10.1073 -17.54733,-23.25147 -23.04676,-37.25214c-6.58029,-16.75232 -5.71514,-33.86572 -5.75585,-51.09375c-0.0701,-29.65649 0.04507,-59.31464 -0.25232,-88.96875c-0.16986,-16.93671 -1.48384,-33.86902 -1.40454,-50.79919c0.08557,-18.26825 0.82589,-36.55463 1.94979,-54.79175c1.51221,-24.53931 7.40104,-48.32453 12.87061,-72.22663c3.71924,-16.25317 5.31433,-33.00317 7.58273,-49.5689c0.48017,-3.5066 -0.24237,-7.17786 -0.0986,-11.04151c2.56204,0.39978 4.77554,1.25495 7.06863,1.70142c7.30567,1.42218 14.7396,2.30005 21.94208,4.11133c11.38016,2.86181 22.31653,3.10656 33.73065,-0.67853c9.96872,-3.30585 20.55106,-4.76129 31.25626,-6.58771c0.03369,8.12164 -0.3266,15.79657 -1.01947,23.6452c-0.12326,2.28083 0.08609,4.388 0.35205,6.97309c0.05661,5.92834 0.05661,11.37866 0.05661,16.60998c3.21133,-0.63263 6.37177,-2.28576 8.76865,-1.52697c6.25357,1.97967 12.17279,5.01556 18.22537,7.63018z" fill="#11B6DB"/>
  <path id="svg_8" d="m674.92798,513.16858c9.00525,2.78241 17.93603,5.84643 27.03973,8.25708c7.10913,1.88251 14.31757,1.60333 21.65204,0.04047c7.05957,-1.50434 14.36707,-1.89014 21.58533,-2.55237c0.99884,-0.09168 2.1109,1.05133 3.44897,1.88458c0.81934,25.13397 6.19831,49.16394 12.34992,73.14063c5.07428,19.77764 8.00323,39.91552 8.1557,60.46978c0.16388,22.09192 1.7572,44.1806 1.65173,66.26551c-0.23694,49.60546 -0.8739,99.21356 -1.9505,148.80749c-0.28192,12.98596 -5.29748,25.13025 -10.55151,37.05365c-7.0185,15.92767 -18.18006,27.95129 -32.6192,37.26086c-5.02808,3.24183 -9.71857,7.10926 -15.01734,9.79529c-3.84082,1.94696 -8.38672,3.0885 -12.69653,3.36396c-4.52734,0.28936 -7.11926,-3.72443 -5.04334,-7.81171c2.44849,-4.82068 5.59735,-9.4245 9.13569,-13.52417c7.80718,-9.04565 15.18652,-18.2793 20.2832,-29.21771c6.57306,-14.10681 5.46722,-27.86042 -2.19946,-41.87995c-0.70649,2.48951 -1.48566,4.96106 -2.1056,7.47193c-1.74585,7.0711 -3.32263,14.18603 -5.19342,21.2232c-0.58484,2.19959 -1.63208,4.38654 -2.92517,6.26422c-2.61413,3.79602 -4.87652,3.8357 -8.1029,0.64234c-3.03241,-3.00147 -4.38001,-6.44873 -3.81098,-10.80255c2.21344,-16.93506 5.25757,-33.68811 10.80133,-49.88605c1.38709,-4.05268 3.28974,-7.93475 5.05103,-11.85236c4.04187,-8.98993 1.64783,-18.02984 -0.14441,-26.88855c-4.72522,-23.35693 -9.78876,-46.6466 -14.8681,-69.93023c-4.87274,-22.33637 -10.44336,-44.53333 -14.77417,-66.97162c-4.5849,-23.75458 -7.93836,-47.74426 -12.08033,-71.58777c-2.80712,-16.15985 -6.04675,-32.24469 -8.72821,-48.7359c2.17219,3.15918 3.97974,6.69134 5.50397,9.66986c0.24432,-0.99384 0.65784,-2.72186 1.09479,-4.44397c1.03686,-4.08649 2.23541,-8.13989 3.065,-12.26764c0.41858,-2.08289 0.30145,-4.30414 0.20465,-6.45276c-0.14203,-3.15204 -0.30121,-6.32367 -0.79071,-9.43378c-0.47632,-3.02636 -1.15515,-5.90954 2.5788,-7.37176z" fill="#11B6DB"/>
  <path id="svg_9" d="m361.12174,687.47913c0.49737,0.97283 0.90319,2.35821 1.40948,4.08667c4.95801,-1.32831 9.95575,-2.6673 15.21118,-4.28479c16.12796,-3.67804 32.06558,-7.12317 48.38559,-6.16736c17.32358,1.01459 34.61636,2.67322 50.54697,10.69983c10.65542,5.36865 21.58618,10.19958 32.15738,15.72345c5.38769,2.81524 10.34265,6.50219 15.33844,10.01513c10.47399,7.36512 22.29663,10.85694 34.67706,13.59082c26.16925,5.77893 49.6983,-3.01312 73.45062,-11.71179c9.75196,-3.57147 19.76001,-6.55243 29.83386,-9.07379c3.21955,-0.80579 4.01056,-2.08185 4.44342,-5.0238c2.96705,20.80224 6.09064,41.83996 8.24414,62.97644c1.24012,12.17132 0.91071,24.50256 1.20099,37.21911c-16.14794,2.46021 -32.16137,5.35187 -48.28363,6.21729c-16.2774,0.87378 -31.79968,-4.22974 -46.57507,-10.77808c-14.69183,-6.51111 -28.83105,-14.30188 -43.65558,-20.46643c-7.3465,-3.05487 -15.62195,-4.14575 -23.59314,-5.36951c-14.58325,-2.23877 -29.33963,-1.94598 -43.23315,3.01343c-12.70892,4.5365 -24.9187,10.60138 -37.04502,16.60559c-13.63653,6.7519 -27.55954,11.68738 -42.86474,13.49085c-13.69599,1.61389 -26.60642,-2.02344 -40.29501,-3.25287c-3.59034,-17.85675 0.18118,-35.42859 2.10989,-53.0163c2.34808,-21.41156 5.58966,-42.72522 8.53632,-64.49389z" fill="#00A3CE"/>
  <path id="svg_10" d="m674.57996,513.01739c-3.38593,1.61341 -2.7071,4.49659 -2.23078,7.52295c0.4895,3.11011 0.64868,6.28174 0.79071,9.43378c0.0968,2.14862 0.21393,4.36987 -0.20465,6.45276c-0.82959,4.12775 -2.02814,8.18115 -3.065,12.26764c-0.43695,1.72211 -0.85047,3.45013 -1.09479,4.44397c-1.52423,-2.97852 -3.33178,-6.51068 -5.51275,-10.06744c-2.03461,-6.50043 -3.69568,-12.97626 -5.35676,-19.45203c-0.55017,0.03119 -1.10034,0.06238 -1.65051,0.09356c0,16.79841 0,33.59687 -0.07513,50.86274c-0.64874,-4.00818 -1.22229,-8.48377 -1.69281,-12.15515c-11.30658,2.07641 -22.60858,4.23877 -33.94916,6.17505c-2.92059,0.49871 -5.96179,0.35137 -8.94904,0.38964c-16.28552,0.20868 -31.77386,-3.79712 -47.15741,-8.65704c-13.94555,-4.40558 -28.40466,-4.89563 -42.87097,-4.19214c-3.67334,0.17853 -7.28528,2.62866 -10.91073,2.5918c-10.61814,-0.10791 -19.96653,4.45196 -29.7681,7.2799c-3.99307,1.15204 -7.54376,4.34083 -11.53528,4.90345c-13.74969,1.93792 -27.61667,1.948 -41.42447,0.22424c-7.04837,-0.87988 -14.05679,-2.07971 -21.7182,-3.41937c-2.49133,-0.75537 -4.34775,-1.22626 -6.20413,-1.69715c-0.44367,-0.0086 -0.8873,-0.01715 -1.66373,-0.02941c-6.38534,-2.61835 -12.30456,-5.65424 -18.55813,-7.63391c-2.39688,-0.75879 -5.55732,0.89434 -8.76865,1.52697c0,-5.23132 0,-10.68164 -0.13144,-17.02002c-0.06915,-2.83758 -0.00693,-4.78717 0.05536,-6.73669c0.36029,-7.67499 0.72058,-15.34992 1.09061,-23.45508c1.11682,-0.80939 2.22387,-1.18869 3.93478,-1.29938c2.42038,-0.20288 4.23691,-0.67441 6.05344,-1.14587c0.75323,-0.08988 1.50647,-0.17972 2.82394,0.02472c1.44107,0.06439 2.31793,-0.16556 3.1948,-0.39551c14.60101,-1.80145 27.44689,3.05316 39.82376,10.16248c8.05917,4.62921 16.1094,9.49237 24.68585,12.95855c19.51938,7.88892 39.55679,8.64783 59.18213,0.47071c10.06457,-4.19349 19.5462,-9.80494 29.22473,-14.90186c16.59564,-8.73968 34.02441,-15.18149 52.67407,-17.36285c17.43384,-2.03916 34.78412,-0.35657 51.81476,3.95492c9.63348,2.43875 19.19928,5.14444 29.14368,7.88107z" fill="#02A3CF"/>
  <path id="svg_11" d="m414.57129,1053.00708c-2.96112,0.99219 -6.32913,2.60352 -9.7919,2.84253c-9.90238,0.68384 -19.84104,0.96057 -29.76969,1.10522c-7.0856,0.10315 -8.11435,-0.85608 -9.96438,-6.86108c-0.7099,-4.65027 -1.19693,-9.49939 -1.63913,-14.76196c0.56174,0.7323 1.6094,1.93371 1.49652,3.01379c-0.34375,3.28882 1.12732,4.68091 4.09625,5.57532c8.90512,2.68286 17.61173,6.17517 26.65372,8.19958c5.92471,1.32666 12.29678,0.6554 18.91861,0.8866z" fill="#0AABD3"/>
  <path id="svg_12" d="m661.21265,1064.63232c-0.30078,-1.10546 -0.40247,-2.5664 -0.56049,-4.83715c-16.55627,0.76867 -32.93646,2.49047 -49.37146,-1.51661c1.83008,-1.03662 3.8952,-1.99914 6.06689,-2.47009c4.01618,-0.87109 8.07721,-1.60705 12.15668,-2.07641c1.46948,-0.16919 3.0694,0.51062 4.56482,0.95446c0.92035,0.27308 1.77924,1.2461 2.62555,1.198c6.44104,-0.36596 12.87073,-0.92602 19.30683,-1.3855c3.9107,-0.27917 5.34326,-2.25073 5.08892,-6.18872c-0.17163,-2.65649 0.58142,-5.37292 1.29401,-8.17456c-0.0755,7.97241 -0.52405,16.05689 -1.17175,24.49658z" fill="#02A3CF"/>
  <path id="svg_13" d="m365.76453,1067.98535c0.14199,-1.87793 0.33087,-3.33398 0.51971,-4.79016c0.23819,-0.00476 0.47635,-0.0094 0.71451,-0.01416c0,1.6687 -0.00006,3.3374 0,5.0061c0.00107,33.66236 -0.47656,67.33387 0.17584,100.98365c0.41669,21.49231 0.73062,43.07422 4.63098,64.37646c0.8837,4.82629 0.61347,9.86377 0.61643,15.10462c-2.03754,-20.15809 -4.80054,-40.58875 -5.3812,-61.0813c-1.04019,-36.71106 -0.7641,-73.45935 -1.04776,-110.19202c-0.02307,-2.99072 -0.11935,-5.98096 -0.22851,-9.39319z" fill="#016FB3"/>
  <path id="svg_14" d="m547.09723,1073.47961c0.67218,0.64893 1.78595,1.73389 1.80884,2.84156c0.43463,21.02649 0.82019,42.05517 1.01739,63.08508c0.04938,5.26379 -0.54175,10.53809 -0.95593,15.79822c-0.09558,1.21374 -0.67395,2.3894 -1.41144,3.69458c-0.0534,-19.84107 0.42261,-39.79334 0.53204,-59.74756c0.04609,-8.40625 -0.68139,-16.81665 -0.9909,-25.67188z" fill="#016FB3"/>
  <path id="svg_15" d="m659.90625,1173.49853c-0.35071,-0.79016 -0.87213,-2.04113 -0.87408,-3.29272c-0.04419,-28.8999 -0.0362,-57.79968 -0.01166,-86.69958c0.00079,-0.97144 0.27417,-1.94251 0.73596,-3.18421c0.284,30.72498 0.25256,61.72009 0.14978,93.17651z" fill="#016FB3"/>
  <path id="svg_16" d="m544.99402,1045.00635c0.89429,6.50647 1.85449,13.00024 2.65356,19.51367c0.23676,1.93042 0.0196,3.91638 -0.25464,6.16846c-1.30755,-8.06385 -2.35009,-16.41895 -3.1159,-25.22266c0.27673,-0.44849 0.71142,-0.45593 0.71142,-0.45593c0,0 0.00977,-0.00891 0.00556,-0.00354z" fill="#016FB3"/>
  <path id="svg_17" d="m477.29114,1135.96899c-0.15534,1.20936 -0.34232,1.99659 -0.85373,4.14991c0,-13.10852 0,-24.83033 0.31674,-36.82666c0.37964,10.56836 0.44251,21.4115 0.53699,32.67675z" fill="#016FB3"/>
  <path id="svg_18" d="m547.10034,1161.3728c-0.0061,3.55725 -0.07611,7.47266 -0.51941,11.4906c-0.09704,-3.64245 0.17926,-7.38745 0.51941,-11.4906z" fill="#016FB3"/>
  <path id="svg_19" d="m544.99274,1044.65674c-0.00428,0.35315 -0.43897,0.36059 -0.65631,0.36792c-0.21729,0.0072 -0.40302,-0.43591 -0.39051,-0.87781c-0.03283,-0.724 -0.17212,-0.94775 -0.40533,-1.11304c-0.08246,-0.43115 -0.16492,-0.8623 -0.20832,-1.62317c0.58088,0.74451 1.12281,1.81885 1.66047,3.2461z" fill="#018FC3"/>
  <path id="svg_20" d="m481.3035,1052.8584c-0.15799,-0.30994 -0.14963,-0.83203 0.01636,-1.57056c0.15506,0.30835 0.15252,0.83338 -0.01636,1.57056z" fill="#11B7DB"/>
  <path id="svg_21" d="m543.45764,1043.24097c0.31616,-0.04187 0.45545,0.18188 0.48999,0.66552c-0.30646,0.07374 -0.49383,-0.14636 -0.48999,-0.66552z" fill="#11B7DB"/>
  <path id="svg_22" d="m436.96057,444.98566c-13.60519,15.34591 -35.90619,16.97708 -53.34839,4.15164c-9.40182,-6.91324 -12.97662,-16.82089 -15.28946,-27.53607c-0.48748,-2.25852 -0.82522,-4.54938 -0.92523,-7.5405c0.40988,-6.45581 0.64517,-12.19812 0.57114,-17.93643c-0.05194,-4.02786 -0.52542,-8.05026 -0.81067,-12.07511c1.51785,-15.71905 8.10007,-28.59542 21.75082,-37.6416c9.72138,-3.59634 19.30027,-4.96161 29.14621,-4.48138c-0.03012,0.01971 -0.04382,-0.05081 0.18976,0.26697c1.25989,0.45514 2.28613,0.5925 3.64862,0.60925c2.56717,0.71921 4.79813,1.55899 7.02905,2.39874c0,0 -0.00286,-0.12109 -0.00036,0.17786c0.35043,0.44699 0.6983,0.59503 1.0462,0.74307c0,0 -0.00403,-0.07999 0.11652,0.1962c0.67801,0.49435 1.23553,0.71252 1.79306,0.93069c0,0 0.08047,-0.10659 0.04355,0.17661c0.30853,0.51538 0.65402,0.74756 0.99951,0.97973c0.03751,0.27091 0.17947,0.46555 0.74988,0.87266c0.64746,0.47921 0.97104,0.66967 1.29461,0.86016c0,0 -0.00113,-0.1094 0.03516,0.16199c0.33978,0.4653 0.64331,0.65921 0.94684,0.85309c0,0 -0.01309,-0.11823 0.0166,0.20645c0.64551,0.84155 1.26129,1.35843 1.87707,1.87528c0,0 0.04612,-0.11753 -0.00631,0.186c0.34848,0.74155 0.74939,1.17957 1.1503,1.61758c0,0 0.02056,-0.03604 0.07385,0.22684c0.32944,0.47253 0.60562,0.68219 0.88177,0.89188c0,0 0.01178,-0.12366 0.0131,0.17904c0.32888,0.79407 0.65646,1.2854 0.98404,1.77671c0,0 0.01498,-0.08518 0.01925,0.34048c-0.17026,3.11643 -0.34482,5.80725 -0.51938,8.49805c-0.66244,1.15005 -1.22305,2.37497 -2.00409,3.43789c-4.55542,6.19935 -9.07836,5.74814 -12.73901,-1.07974c-3.00967,-5.61374 -6.1955,-10.82254 -13.59296,-11.8121c-9.65512,-1.29157 -17.84478,3.31256 -20.97061,13.36944c-1.80285,5.80039 -2.51105,11.94098 -3.97687,19.24949c3.13181,-0.92432 5.45423,-1.05967 7.10154,-2.18406c11.78225,-8.04217 24.52685,-8.09854 36.41958,0.09443c0.41092,0.28308 0.82611,0.55993 1.73551,1.18728c0.84753,0.55783 1.19888,0.76807 1.55023,0.9783c0.46771,0.54987 0.93539,1.09974 1.80829,2.00632c1.00235,0.88629 1.59945,1.41593 2.19659,1.94556c0.01602,0.3099 0.14298,0.56442 0.71665,1.13012c0.98074,1.18293 1.62579,1.99924 2.27081,2.81559c0,0 0.02502,-0.07083 0.07687,0.26733c0.99967,2.1456 1.94751,3.953 2.89536,5.76041c0,0 0.01504,-0.09711 -0.0188,0.24109c-0.02857,0.78546 -0.02329,1.23269 -0.28732,1.93182c-0.05622,10.55161 1.0765,20.91922 -2.55054,30.93738c-0.1004,0.27737 0.07129,0.65332 0.09943,0.91961c-0.01664,-0.06368 0.11361,-0.04449 -0.20447,0.0701c-0.48245,0.73624 -0.64679,1.35785 -0.82611,1.92075c-0.01499,-0.05875 0.10531,-0.0437 -0.24164,0.04376c-0.7872,1.08377 -1.22742,2.08011 -1.6897,3.02259c-0.02206,-0.05387 0.09049,-0.02408 -0.18573,-0.01337c-0.53748,0.60519 -0.7988,1.19968 -1.06012,1.79413m-17.92395,-10.93918c0,0 0.03156,0.08011 0.39291,-0.03519c0,0 0.37113,-0.07828 1.05927,-0.27023c4.80075,-4.47217 5.48917,-10.44223 5.40286,-16.40378c-0.05368,-3.70673 0.51133,-8.08493 -3.94964,-10.98144c-0.41111,-0.41019 -0.82221,-0.82041 -1.07263,-1.28092c0,0 0.00857,0.16815 -0.13199,-0.39246c-0.30829,-0.20996 -0.61658,-0.41995 -1.29932,-0.70758c0,0 -0.36725,-0.10662 -0.40064,-0.02758c0,0 0.08426,0.0162 -0.10314,-0.49066c-0.30735,-0.17072 -0.61469,-0.34144 -0.92813,-0.45417c0,0 0.05133,-0.02771 -0.29303,-0.52182c-0.55344,-0.22287 -1.10688,-0.44571 -1.64731,-0.56369c0,0 0.09594,-0.04434 -0.28702,-0.64447c-3.90973,-0.69693 -7.81946,-1.39386 -12.45331,-2.09472c-5.80649,1.65689 -10.3995,4.66397 -12.35245,11.62716c-2.37451,7.06626 -2.40915,13.91119 1.95243,20.25281c0,0 -0.09473,0.00037 0.0577,0.56186c0.29606,0.19339 0.59211,0.38678 0.84436,0.4675c0,0 -0.09258,0.07782 -0.0227,0.71747c0.7179,0.78454 1.43579,1.56909 2.27655,2.79052c0.17392,0.28046 0.42563,0.43018 1.08319,0.99671c0.56522,0.22674 1.13043,0.45349 1.72919,0.55566c0,0 -0.1272,0.02179 -0.05322,0.61105c0.35861,0.14988 0.71722,0.29978 1.08969,0.35099c0,0 -0.09622,0.02591 0.22647,0.56173c0.59298,0.18302 1.18597,0.36603 1.83301,0.46305c0,0 -0.09317,-0.04044 0.44052,0.61337c5.97195,0.85767 11.72589,0.96207 15.74576,-4.65866c0,0 -0.0337,0.11761 0.53051,0.00558c0.13828,-0.35446 0.27655,-0.70892 0.33011,-1.04809z" fill="#1F5493"/>
  <path id="svg_23" d="m457.15231,388.04834c-0.03424,-0.45975 -0.06845,-0.91949 0.31711,-1.80041c2.09375,-7.40625 3.7677,-14.3913 5.44165,-21.37632c0.00003,0 0.01355,0.08731 0.23493,-0.01208c0.37811,-0.42316 0.53491,-0.74695 0.69168,-1.07071c0,0 0.06051,0.09298 0.34402,-0.04972c0.77042,-2.04717 1.25733,-3.95162 1.74423,-5.8561c0,0 0.0142,0.08358 0.29938,-0.02735c0.741,-1.082 1.19678,-2.0531 1.65259,-3.0242c0,0 0.03906,0.09509 0.25671,0.0087c0.38819,-0.40732 0.55872,-0.72824 0.72928,-1.04917c0,0 -0.13791,0.07062 0.03925,0.04319c0.30218,-0.07709 0.42721,-0.12674 0.55224,-0.17639c-0.12491,-0.21238 -0.24981,-0.42475 -0.37472,-0.63712c14.00809,-15.65872 44.57846,-20.35254 58.9241,9.59097c1.64319,3.42981 2.74835,7.11737 4.27661,11.43653c0.719,3.49752 1.40595,6.22451 1.78595,8.99362c1.92688,14.04138 1.12781,28.01358 -1.24536,41.93347c0,0 0.10437,0.00479 -0.17438,0.16281c-0.45324,1.05207 -0.62774,1.94614 -0.80224,2.84024c0,0 0.09472,0.00583 -0.16492,0.18283c-0.44873,1.05744 -0.63776,1.9379 -0.82684,2.81836c0,0 0.09222,0.00287 -0.17334,0.19727c-1.77796,3.72732 -3.29035,7.26028 -4.80274,10.79321c0,0 0.08032,-0.00265 -0.19085,0.12158c-0.48395,0.68985 -0.6966,1.25544 -0.90924,1.82102c0,0 0.11834,0.06064 -0.16645,0.04318c-0.5285,0.3114 -0.77215,0.64029 -1.01581,0.96918c-5.11413,3.44183 -10.22827,6.88366 -16.16897,10.21637c-7.01761,-0.1731 -13.25528,0.20004 -19.38352,-0.4534c-4.14584,-0.44211 -8.13763,-2.32883 -12.19833,-3.56943c0,0 0.09076,-0.03098 0.00205,-0.2529c-0.41044,-0.39197 -0.73218,-0.56201 -1.05393,-0.73206c0,0 0.08347,0.13251 0.04849,-0.04501c-0.30118,-0.16034 -0.56738,-0.14319 -0.83362,-0.12601c-11.26153,-7.61435 -14.07583,-19.48718 -15.94427,-31.79605c-0.51837,-3.41464 -0.70538,-6.87954 -0.71552,-11.06494c0.15421,-6.84674 -0.0205,-12.94995 -0.19522,-19.05316m28.72357,47.05121c0,0 -0.10275,0.04251 -0.00613,0.62344c0.34162,0.16394 0.68323,0.32788 1.0528,0.37256c0,0 -0.1221,0.00955 0.01419,0.56677c0.33468,0.17002 0.66934,0.34003 1.00042,0.41413c0,0 -0.08996,0.03363 0.31757,0.64895c5.01837,2.36356 10.05475,3.98929 15.80585,0.09418c4.74402,-3.39487 5.84405,-8.66699 7.86276,-14.01041c0.3219,-0.35412 0.91626,-0.7005 0.92658,-1.0635c0.41717,-14.67307 0.78973,-29.34745 1.08044,-44.02338c0.0047,-0.23614 -1.07459,-0.49371 -1.85162,-1.53781c-0.15708,-1.077 -0.31418,-2.15396 -0.60691,-3.88272c-0.79092,-1.80976 -1.58185,-3.61948 -2.3638,-5.32706c0,0 0.09702,-0.03332 0.01609,-0.63595c-0.36759,-0.4632 -0.7352,-0.9264 -1.12833,-1.34256c0,0 0.05301,-0.00739 -0.09662,-0.53495c-0.27582,-0.20846 -0.55164,-0.4169 -0.81311,-0.4913c0,0 0.12967,-0.03671 0.04892,-0.65363c-0.35315,-0.4812 -0.70633,-0.96237 -1.08246,-1.35998c0,0 0.08664,0.00189 -0.0722,-0.53934c-0.30152,-0.19967 -0.60306,-0.39935 -0.88877,-0.50375c0,0 0.08261,-0.04999 -0.22561,-0.60092c-0.57251,-0.19785 -1.14502,-0.39566 -1.77744,-0.48639c0,0 0.12207,0.01278 0.03986,-0.56644c-0.36319,-0.13153 -0.72641,-0.26309 -1.09687,-0.31402c0,0 0.07987,-0.01322 -0.41266,-0.57776c-4.85238,-1.90076 -9.43911,-1.4672 -13.64196,1.56741c0,0 -0.05121,-0.07214 -0.64737,0.09573c-0.49808,0.62418 -0.99616,1.24835 -1.41608,1.92676c0,0 -0.00571,-0.09491 -0.54013,0.22543c-0.19257,0.5864 -0.38513,1.17276 -0.46658,1.7511c0,0 -0.04267,-0.10293 -0.5856,0.21421c-0.17496,0.59912 -0.34995,1.19824 -0.41254,1.79382c0,0 -0.03665,-0.10626 -0.57861,0.21622c-0.1858,0.59997 -0.37155,1.19995 -1.03244,2.1351c-0.07071,0.57068 -0.14142,1.14138 -0.58042,2.38852c-0.99005,5.11483 -1.9801,10.22967 -3.72397,15.5632c-0.31768,0.53219 -0.90753,1.06192 -0.91232,1.59689c-0.07327,8.20883 -0.12125,16.41907 -0.00809,24.62665c0.01163,0.8414 1.09406,1.668 1.9003,3.32025c0.98053,4.10892 1.96103,8.21787 2.93387,12.22861c0,0 -0.09439,0.02817 -0.01724,0.64602c0.34006,0.49149 0.68011,0.98298 1.0368,1.37943c0,0 -0.09601,0.00925 0.04352,0.63742c0.63007,0.83203 1.2601,1.66406 1.93164,2.4054c0,0 -0.09973,-0.00251 0.04279,0.56396c0.30908,0.18695 0.61819,0.3739 0.93148,0.44971z" fill="#205594"/>
  <path id="svg_24" d="m619.25287,420.34161c4.98236,-14.22445 14.30908,-20.59817 28.06573,-19.25595c5.22345,0.50962 9.40143,2.76334 12.97199,6.63928c8.11011,8.80375 10.29565,29.57947 4.065,39.47373c-6.84442,10.86877 -25.3609,18.30069 -40.62402,5.55093c-1.19214,-1.56738 -1.9245,-2.7163 -2.65686,-3.8652c0,0 -0.01148,0.09811 0.02282,-0.25171c-0.30182,-1.15124 -0.63793,-1.95267 -0.974,-2.75409c0,-0.00003 0.04236,0.10425 0.09772,-0.34174c-2.38177,-8.60903 -3.0592,-16.84487 -0.96838,-25.19525m19.28338,25.79587c6.24451,1.2973 12.8194,-1.64792 15.63721,-7.00476c3.13678,-5.96295 1.98377,-16.20377 -2.24646,-19.95401c-7.5343,-6.67929 -17.63067,-3.46799 -20.07263,6.38455c-2.56354,10.34293 -0.52454,17.34281 6.68188,20.57422z" fill="#205694"/>
  <path id="svg_25" d="m594.77161,362.97174c-0.27173,7.08029 0.52105,14.41013 -1.06623,21.18207c-2.34417,10.00079 -10.27569,14.86706 -20.60339,14.22345c-4.60223,-0.28681 -9.33484,-0.62357 -13.711,-1.93186c-8.16955,-2.44244 -10.91492,-9.45343 -12.20532,-16.99438c-1.47913,-8.64404 -0.53223,-17.21689 2.5625,-25.39966c2.02808,-5.3624 5.92785,-9.14001 12.21814,-10.56833c7.44678,-0.04687 14.29217,-0.29638 21.13751,-0.5459c0,0 -0.07739,0.01731 0.06049,0.26075c0.72436,0.41848 1.31079,0.5935 1.89721,0.76849c0,0 -0.04913,0.03851 -0.01416,0.35632c0.76441,0.67273 1.49378,1.02762 2.22321,1.38251c0,0 -0.02173,0.1004 -0.01276,0.36252c0.33203,0.4274 0.65515,0.59268 0.97821,0.75796c0,0.00003 -0.09704,0.05616 -0.03131,0.28205c0.3891,0.3912 0.7124,0.55652 1.03577,0.7218c0,0 -0.09149,0.0513 -0.03131,0.27875c0.38141,0.40017 0.7027,0.5729 1.02392,0.7456c0,0.00003 -0.07348,-0.0592 -0.08899,0.31305c0.94758,4.17581 1.84681,7.99765 2.92621,11.76788c0.2226,0.77759 1.1167,1.36295 1.7013,2.03693m-33.90668,18.41904c3.46069,5.65591 12.80768,5.54001 17.66455,2.97516c4.37067,-2.30811 6.70752,-9.999 5.1958,-16.59693c-1.34595,-5.87451 -3.40918,-11.36865 -10.30145,-12.62131c-5.78028,-1.05053 -10.61951,1.68055 -13.09796,6.33335c-3.23175,6.06686 -1.7887,12.86053 0.53906,19.90973z" fill="#205594"/>
  <path id="svg_26" d="m591.18726,421.05167c10.69561,-23.72904 21.33709,-47.4827 32.12158,-71.17121c3.0058,-6.60241 7.19226,-8.10675 15.04205,-5.43942c-0.74713,2.70224 -1.14203,5.6503 -2.33844,8.22611c-14.59076,31.41314 -31.21222,61.91809 -42.88458,95.25875c-4.1665,5.63034 -5.74634,6.14597 -12.92951,4.22412c-0.08892,-1.69906 -0.18225,-3.48117 -0.27551,-5.26324c0,0 -0.00055,0.08597 0.30664,-0.04077c1.09784,-2.40805 1.88843,-4.68939 2.67902,-6.9707c0,0 0.00055,0.09338 0.3064,-0.03302c1.10949,-2.4014 1.91314,-4.67646 2.71679,-6.95151c0,0 0.0213,0.07818 0.31427,-0.0423c1.7038,-3.42587 3.1145,-6.73126 4.52527,-10.03665c0,0 -0.06067,0.06476 0.19775,0.00055c0.245,-0.62973 0.23163,-1.19522 0.21827,-1.76071z" fill="#1E5291"/>
  <path id="svg_27" d="m533.15234,424.77643c2.04279,-13.72107 2.84186,-27.69327 0.91498,-41.73465c-0.38,-2.76911 -1.06695,-5.4961 -1.66766,-8.62094c1.16467,3.54101 3.35229,7.44372 3.42065,11.38321c0.19415,11.1828 -0.41821,22.38299 -0.8695,33.57007c-0.07062,1.75137 -0.95832,3.46981 -1.79847,5.40231z" fill="#BFF3FB"/>
  <path id="svg_28" d="m367.05872,384.46765c0.38449,3.60639 0.85797,7.62879 0.90991,11.65665c0.07403,5.73831 -0.16126,11.48062 -0.54535,17.52264c-0.34186,-9.38598 -0.4028,-19.07339 -0.36456,-29.17929z" fill="#124285"/>
  <path id="svg_29" d="m418.08508,341.90649c-9.87603,-0.46051 -19.45492,0.90476 -28.85025,4.41184c1.90427,-1.29157 4.01429,-2.33276 6.83417,-3.57507c6.76672,-0.95313 12.82361,-1.70517 18.88049,-2.45719c0,0 0.02439,-0.14511 0.14267,0.12964c1.07648,0.68009 2.0347,1.08542 2.99292,1.49078z" fill="#124285"/>
  <path id="svg_30" d="m476.03955,451.41022c3.86548,0.94885 7.85727,2.83557 12.00311,3.27768c6.12824,0.65344 12.36591,0.2803 19.03278,0.35986c-10.53943,4.26517 -20.83844,1.84213 -31.03589,-3.63754z" fill="#124285"/>
  <path id="svg_31" d="m579.66071,447.14972c0.3554,1.51913 0.44873,3.30124 0.53765,5.0003c7.18317,1.92185 8.76301,1.40622 12.67536,-3.98346c-1.54639,6.14197 -6.80542,8.91254 -12.86841,6.39374c-4.17932,-1.7362 -0.58008,-4.7286 -0.3446,-7.41058z" fill="#124285"/>
  <path id="svg_32" d="m443.88873,406.03885c-0.00525,-0.44727 -0.01053,-0.8945 -0.03106,-1.67844c1.03354,3.14383 2.82769,6.59686 2.95703,10.11121c0.19571,5.31653 -0.76807,10.67569 -1.69165,16.14007c-0.45249,0.12333 -0.76725,-0.12945 -0.68,-0.53118c1.9675,-8.33854 1.53525,-16.21259 -0.55432,-24.04166z" fill="#BFF3FB"/>
  <path id="svg_33" d="m619.03662,420.12305c-1.87457,8.56894 -1.19714,16.80478 1.232,25.38345c-0.93549,-1.59265 -2.50763,-3.54971 -2.67182,-5.61853c-0.53046,-6.68335 -2.25958,-13.52304 1.43982,-19.76492z" fill="#BFF3FB"/>
  <path id="svg_34" d="m582.84863,342.67154c-6.59015,0.51511 -13.43554,0.76462 -20.53265,0.76263c6.50311,-2.84024 13.29101,-4.55734 20.53265,-0.76263z" fill="#124285"/>
  <path id="svg_35" d="m462.62634,365.09531c-1.38922,6.76132 -3.06317,13.74637 -5.10287,20.80993c1.36224,-6.80972 3.09021,-13.69799 5.10287,-20.80993z" fill="#124285"/>
  <path id="svg_36" d="m414.72998,339.91864c-5.83737,1.11945 -11.89426,1.87149 -18.3219,2.68146c1.71253,-0.9086 3.72446,-2.44702 5.8945,-2.71778c4.02048,-0.50164 8.13343,-0.26199 12.4274,0.03632z" fill="#BFF3FB"/>
  <path id="svg_37" d="m594.828,362.55914c-0.64099,-0.26138 -1.53509,-0.84674 -1.75769,-1.62433c-1.0794,-3.77023 -1.97863,-7.59207 -2.8833,-11.78744c1.6048,4.07181 3.15112,8.53549 4.64099,13.41177z" fill="#124285"/>
  <path id="svg_38" d="m418.05499,341.92621c-0.92813,-0.42508 -1.88635,-0.83041 -3.03619,-1.50494c5.13443,-1.07239 9.50153,1.1315 13.75885,4.45672c-2.08615,-0.51657 -4.31711,-1.35635 -7.07175,-2.43149c-1.58072,-0.34726 -2.63772,-0.4592 -3.69473,-0.5711c0,0 0.0137,0.07052 0.04382,0.05081z" fill="#BFF3FB"/>
  <path id="svg_39" d="m457.10113,388.5109c0.2259,5.64065 0.40061,11.74386 0.29148,18.14678c-0.30341,-5.69494 -0.32303,-11.68957 -0.29148,-18.14678z" fill="#124285"/>
  <path id="svg_40" d="m526.21411,441.84802c1.17578,-3.41098 2.68817,-6.94394 4.45935,-10.71692c-1.20166,3.37165 -2.66217,6.98334 -4.45935,10.71692z" fill="#BFF3FB"/>
  <path id="svg_41" d="m590.47009,422.98126c-1.10962,3.13596 -2.52032,6.44135 -4.26452,9.86456c1.09887,-3.15313 2.53112,-6.42413 4.26452,-9.86456z" fill="#124285"/>
  <path id="svg_42" d="m440.76416,366.85791c-0.15192,-2.59717 0.02264,-5.28799 0.14966,-8.40356c3.97943,2.38528 1.62662,5.35922 -0.14966,8.40356z" fill="#BFF3FB"/>
  <path id="svg_43" d="m381.61801,510.14035c-1.4223,0.55627 -3.23883,1.0278 -5.30881,1.24313c1.46924,-0.61337 3.19193,-0.97064 5.30881,-1.24313z" fill="#11B6DB"/>
  <path id="svg_44" d="m582.64795,440.10632c-0.53003,2.0503 -1.32062,4.33164 -2.46008,6.72882c0.50061,-2.08868 1.35003,-4.29324 2.46008,-6.72882z" fill="#124285"/>
  <path id="svg_45" d="m585.66895,433.11957c-0.5409,2.04626 -1.34455,4.32132 -2.49915,6.71063c0.51153,-2.08444 1.37396,-4.28314 2.49915,-6.71063z" fill="#124285"/>
  <path id="svg_46" d="m442.93304,435.93545c-0.78576,1.9202 -1.5715,3.84043 -2.71795,5.84879c-0.36066,0.0881 -0.4188,0.03537 -0.35886,-0.25592c0.16892,-0.672 0.27786,-1.05273 0.38681,-1.43347c0.00003,0 -0.12027,-0.01505 0.16382,-0.11804c0.48108,-0.69321 0.6781,-1.28339 0.87509,-1.8736c0,0 -0.13025,-0.01919 0.14081,-0.11398c0.64981,-0.77304 1.02856,-1.4513 1.43234,-2.10965c0.02506,0.01989 0.07794,0.05587 0.07794,0.05587z" fill="#BFF3FB"/>
  <path id="svg_47" d="m443.94092,403.74405c-0.9632,-1.43366 -1.91104,-3.24106 -2.94824,-5.38553c0.92828,1.44592 1.94595,3.22885 2.94824,5.38553z" fill="#BFF3FB"/>
  <path id="svg_48" d="m465.65198,358.11627c-0.21295,1.67121 -0.69986,3.57566 -1.52484,5.63281c0.19155,-1.69806 0.72122,-3.54879 1.52484,-5.63281z" fill="#124285"/>
  <path id="svg_49" d="m444.828,430.8613c-0.30053,1.68994 -0.75848,3.2536 -1.55569,4.94571c-0.33927,0.12844 -0.39215,0.09246 -0.37821,-0.27643c0.49653,-1.92871 0.9791,-3.48853 1.46167,-5.04834c0.00003,0 0.31479,0.25278 0.47223,0.37906z" fill="#BFF3FB"/>
  <path id="svg_50" d="m387.8219,509.65472c-0.66779,0.4296 -1.54465,0.65955 -2.60754,0.63608c0.67547,-0.44748 1.53695,-0.64157 2.60754,-0.63608z" fill="#11B6DB"/>
  <path id="svg_51" d="m621.06171,449.27502c0.74536,0.75828 1.47772,1.9072 2.37213,3.36799c-0.68701,-0.78452 -1.53607,-1.88096 -2.37213,-3.36799z" fill="#BFF3FB"/>
  <path id="svg_52" d="m440.96292,397.71204c-0.6546,-0.43833 -1.29965,-1.25464 -2.07638,-2.35971c0.60748,0.46807 1.34671,1.22488 2.07638,2.35971z" fill="#BFF3FB"/>
  <path id="svg_53" d="m439.88208,441.90021c-0.54144,0.95858 -1.11056,1.88934 -1.88354,2.599c-0.03644,-0.58686 0.13095,-0.95264 0.29834,-1.31839c0.00003,0 -0.11252,-0.02979 0.1521,-0.10251c0.62551,-0.46805 0.98645,-0.86337 1.34735,-1.25867c-0.00004,-0.00003 0.0581,0.0527 0.08575,0.08057z" fill="#BFF3FB"/>
  <path id="svg_54" d="m587.16144,345.4292c-0.6203,-0.07889 -1.34967,-0.43378 -2.10553,-1.13654c0.64783,0.05494 1.32208,0.45774 2.10553,1.13654z" fill="#124285"/>
  <path id="svg_55" d="m467.59869,354.99005c-0.1766,0.8125 -0.63238,1.7836 -1.41565,2.86237c0.1605,-0.82953 0.64847,-1.76667 1.41565,-2.86237z" fill="#124285"/>
  <path id="svg_56" d="m437.94226,393.7984c-0.57352,-0.18368 -1.17062,-0.71332 -1.91427,-1.50738c0.53253,0.21087 1.2116,0.68612 1.91427,1.50738z" fill="#BFF3FB"/>
  <path id="svg_57" d="m437.79681,352.91498c-0.57153,-0.19687 -1.18731,-0.71375 -1.88989,-1.53873c0.55734,0.20081 1.20151,0.70975 1.88989,1.53873z" fill="#BFF3FB"/>
  <path id="svg_58" d="m532.15369,427.8006c-0.13385,-0.7164 0.04065,-1.61047 0.48584,-2.71417c0.12127,0.70574 -0.02808,1.62109 -0.48584,2.71417z" fill="#BFF3FB"/>
  <path id="svg_59" d="m531.15979,430.80145c-0.11713,-0.70242 0.0719,-1.58288 0.51508,-2.68747c0.09973,0.68708 -0.05457,1.59827 -0.51508,2.68747z" fill="#BFF3FB"/>
  <path id="svg_60" d="m620.08661,446.23761c0.37299,0.44241 0.7091,1.24384 1.06024,2.39185c-0.35571,-0.44657 -0.72644,-1.23972 -1.06024,-2.39185z" fill="#BFF3FB"/>
  <path id="svg_61" d="m438.02069,443.19153c0.1088,0.35504 -0.05859,0.72082 -0.37567,1.35138c-0.14972,0.26477 -0.42767,0.32181 -0.55606,0.38226c0.13293,-0.53396 0.39425,-1.12845 0.93173,-1.73364z" fill="#124285"/>
  <path id="svg_62" d="m584.86804,343.7384c-0.39294,0.05298 -0.97937,-0.12204 -1.70386,-0.58014c0.41138,-0.07131 0.96088,0.14045 1.70386,0.58014z" fill="#124285"/>
  <path id="svg_63" d="m431.77057,346.94275c-0.45026,0.08807 -1.00778,-0.1301 -1.72443,-0.61395c0.43295,-0.07459 1.02506,0.11654 1.72443,0.61395z" fill="#BFF3FB"/>
  <path id="svg_64" d="m438.95892,354.7229c-0.37478,-0.12237 -0.77569,-0.56039 -1.18728,-1.30048c0.37994,0.1269 0.77053,0.55588 1.18728,1.30048z" fill="#BFF3FB"/>
  <path id="svg_65" d="m440.92914,357.78986c-0.31891,-0.16816 -0.64649,-0.65949 -1.03742,-1.45044c0.30069,0.17599 0.66471,0.65167 1.03742,1.45044z" fill="#BFF3FB"/>
  <path id="svg_66" d="m525.07843,443.79224c-0.08838,-0.44525 0.12427,-1.01084 0.59857,-1.73969c0.07526,0.43094 -0.11114,1.02515 -0.59857,1.73969z" fill="#BFF3FB"/>
  <path id="svg_67" d="m591.05926,421.33142c0.14136,0.28574 0.15473,0.85123 -0.11193,1.4422c-0.19208,-0.37048 -0.10407,-0.76648 0.11193,-1.4422z" fill="#124285"/>
  <path id="svg_68" d="m590.18744,348.56055c-0.27557,0.12063 -0.59686,-0.0521 -0.97699,-0.5047c0.27118,-0.11615 0.60126,0.0476 0.97699,0.5047z" fill="#124285"/>
  <path id="svg_69" d="m474.84705,450.41754c0.26715,-0.11398 0.58889,0.05606 0.9981,0.49597c-0.25622,0.10926 -0.59988,-0.05136 -0.9981,-0.49597z" fill="#124285"/>
  <path id="svg_70" d="m435.85303,350.89377c-0.20917,0.06558 -0.5127,-0.12833 -0.90668,-0.58609c0.21045,-0.06705 0.51138,0.12979 0.90668,0.58609z" fill="#BFF3FB"/>
  <path id="svg_71" d="m434.84576,349.87076c-0.20394,0.0769 -0.52752,-0.11356 -0.99167,-0.55548c0.19697,-0.0716 0.53449,0.10824 0.99167,0.55548z" fill="#BFF3FB"/>
  <path id="svg_72" d="m589.20935,347.53122c-0.29224,0.13303 -0.61554,-0.03229 -0.99408,-0.47855c0.28418,-0.12722 0.62354,0.02649 0.99408,0.47855z" fill="#124285"/>
  <path id="svg_73" d="m432.84628,348.10797c-0.27087,0.06519 -0.61636,-0.16699 -0.98422,-0.71301c0.28827,-0.07071 0.59894,0.17245 0.98422,0.71301z" fill="#BFF3FB"/>
  <path id="svg_74" d="m588.21112,346.52808c-0.29816,0.13232 -0.62128,-0.03296 -1.00104,-0.47931c0.2876,-0.1268 0.63184,0.02746 1.00104,0.47931z" fill="#124285"/>
  <path id="svg_75" d="m429.862,345.8678c-0.24164,0.10626 -0.58951,-0.04178 -0.99756,-0.47022c0.25699,-0.11493 0.57413,0.05048 0.99756,0.47022z" fill="#BFF3FB"/>
  <path id="svg_76" d="m474.16205,450.1095c0.11151,-0.16419 0.37771,-0.18134 0.60898,0.01422c-0.03498,0.21271 -0.45423,0.13275 -0.60898,-0.01422z" fill="#124285"/>
  <path id="svg_77" d="m468.91898,353.16077c0.28659,0.07226 0.41149,0.28463 0.5364,0.49701c-0.12503,0.04965 -0.25006,0.0993 -0.58239,0.10501c-0.20728,-0.04392 -0.1157,-0.46189 0.04599,-0.60202z" fill="#124285"/>
  <path id="svg_78" d="m468.57861,353.8432c0.11472,0.26871 -0.05581,0.58963 -0.49533,0.99994c-0.10931,-0.25632 0.05036,-0.60199 0.49533,-0.99994z" fill="#124285"/>
  <path id="svg_79" d="m439.86127,355.90289c-0.19675,0.04468 -0.47293,-0.16498 -0.82297,-0.63501c0.19861,-0.04669 0.4711,0.16699 0.82297,0.63501z" fill="#BFF3FB"/>
  <path id="svg_80" d="m463.5448,363.82294c0.13611,0.28964 -0.02069,0.61343 -0.44257,1.03054c-0.12686,-0.26992 0.01145,-0.6332 0.44257,-1.03054z" fill="#124285"/>
  <path id="svg_81" d="m523.89282,444.84854c-0.05401,-0.2525 0.18964,-0.58139 0.7392,-0.95584c0.05682,0.26276 -0.19232,0.57111 -0.7392,0.95584z" fill="#BFF3FB"/>
  <path id="svg_82" d="m433.82141,389.90201c-0.21176,0.08023 -0.56311,-0.13001 -1.10123,-0.58866c0.19605,-0.06619 0.57886,0.116 1.10123,0.58866z" fill="#BFF3FB"/>
  <path id="svg_83" d="m350.92401,899.17023c-0.03467,-2.96448 -0.03467,-5.54151 -0.03467,-8.11859c0.3136,0.00207 0.62723,0.00409 0.94083,0.00616c0,2.8512 0.00394,5.70233 -0.01276,8.55347c-0.00076,0.12817 -0.2536,0.37713 -0.27826,0.36383c-0.20813,-0.11188 -0.39038,-0.27191 -0.61514,-0.80487z" fill="#FEFEFE"/>
  <path id="svg_84" d="m400.00531,566.38757c1.85107,0.10187 3.70749,0.57276 5.78186,1.32678c-2.14395,1.62671 -4.82852,4.52845 -5.78186,-1.32678z" fill="#11B6DB"/>
  <path id="svg_85" d="m431.01019,1288.99512c1.23655,-0.84949 3.01776,-1.42139 3.61612,-2.59595c2.69751,-5.29431 5.30527,-10.66687 7.39926,-16.21729c0.66303,-1.75732 0.30576,-4.61035 -0.75149,-6.17211c-3.11099,-4.59546 -3.08002,-8.64148 1.08322,-15.52954c2.08447,-3.44874 7.64752,-5.27808 11.60266,-5.12317c7.32807,0.28698 7.96317,6.01159 9.53561,10.85315c1.73273,5.33496 -2.59399,8.63317 -5.9631,10.39892c-10.38019,5.4397 -14.2829,15.75098 -17.83676,25.07642c-6.46344,16.9602 -11.01151,34.724 -15.23804,52.42004c-1.33926,5.60742 0.73508,12.08679 1.52533,18.13074c0.83399,6.37817 2.08771,12.70105 2.95191,19.07605c0.18765,1.38427 -0.068,3.23266 -0.8848,4.25732c-1.33658,1.67676 -3.30112,2.85303 -5.00073,4.24048c-0.96634,-1.62646 -2.08896,-3.18213 -2.86429,-4.89514c-1.34485,-2.97083 -2.59979,-5.99622 -3.65372,-9.08032c-0.78509,-2.29761 -1.19342,-4.72388 -1.76956,-7.0929c0.60864,-0.25928 1.21728,-0.51855 1.8259,-0.77783c1.7977,2.51025 3.5954,5.02039 5.86563,8.19031c1.50879,-12.87976 -6.71793,-22.4137 -9.01672,-33.95899c6.69689,2.5918 6.10104,-1.68628 6.79116,-6.18628c1.0708,-6.98278 3.61689,-13.72619 5.03687,-20.67346c0.76617,-3.74853 0.67965,-7.71204 0.62988,-11.57409c-0.04239,-3.29029 -0.58252,-6.57422 -0.53455,-10.31617c2.12867,-1.12024 3.88947,-1.78515 5.65021,-2.45019z" fill="#0AABD3"/>
  <path id="svg_86" d="m424.01709,1276.97253c-0.00266,-2.34912 -0.08759,-4.70141 0.00543,-7.04675c0.59793,-15.07971 1.45249,-30.15478 1.68356,-45.2395c0.04883,-3.18713 -1.81515,-6.57581 -3.37152,-9.57373c-2.21304,-4.2627 -4.80029,-8.35901 -7.55316,-12.29907c-1.06668,-1.52674 -2.95917,-2.52698 -4.58383,-3.60364c-4.1813,-2.771 -8.62259,-5.19336 -12.57178,-8.25574c-2.70892,-2.10071 -2.23456,-4.56982 0.98673,-6.25757c3.95114,-2.07031 7.77218,-3.09997 11.33389,0.72461c0.44547,0.47827 0.98773,0.92139 1.57004,1.20899c6.91836,3.41626 6.92258,3.40771 1.67618,8.62756c3.91531,5.01794 7.82818,10.03491 12.27377,15.73474c0.55426,-7.19812 1.05081,-13.64673 1.98605,-20.54053c2.34412,-0.44506 4.24948,-0.44506 7.13279,-0.44506c-1.0575,3.2904 -1.6669,5.62011 -2.55146,7.84033c-1.43689,3.60657 -2.14767,6.9187 1.75409,9.57861c0.67881,0.46289 0.8291,1.70081 1.22354,2.58081c-5.34698,17.36414 -7.28088,35.03247 -5.12887,53.14636c0.50482,4.24927 0.11072,8.60535 -0.21778,13.34729c-1.4851,0.7179 -2.61154,1.13819 -3.76373,1.22766c-0.60474,0.04712 -1.25451,-0.48486 -1.88394,-0.75537z" fill="#0AABD3"/>
  <path id="svg_87" d="m427.99725,1185c0.66193,-6.37708 1.32386,-12.75427 1.99298,-20.01453c0.0018,-3.92187 -0.0036,-6.96057 -0.009,-9.99926c-1.11493,-6.9657 -1.01373,-14.23951 -6.30768,-19.97779c-4.59756,-4.98364 -8.8547,-10.28137 -13.2623,-15.4403c0.60489,-0.59644 1.20975,-1.193 1.81464,-1.78956c4.8891,4.34583 9.77823,8.69153 14.65595,13.02723c4.15014,-4.63404 4.41836,-10.42688 0.79617,-14.64331c-3.84351,-4.474 -3.85608,-9.54346 0.70157,-13.58313c0.26053,2.19323 0.24582,3.90844 0.71774,5.47717c0.39856,1.32495 1.203,2.63452 2.16565,3.62146c0.31192,0.3197 2.27286,-0.177 2.47375,-0.69238c0.55939,-1.4347 0.73972,-3.07044 0.78965,-4.63575c0.05038,-1.58093 -0.23505,-3.1726 -0.37336,-4.75952c1.83857,0.59497 4.09281,0.70862 5.44022,1.87232c4.6117,3.98315 4.49027,4.12378 3.91226,7.54162c-2.61941,1.10071 -5.09665,2.14173 -7.57385,3.18262c0.07413,0.57666 0.14829,1.15344 0.22244,1.7301c1.75528,0.55701 3.51056,1.11414 5.91205,1.87622c-1.3948,2.47803 -2.38992,5.16065 -4.14319,7.1875c-5.01846,5.80152 -4.63415,12.7229 -3.69586,19.32801c1.62207,11.41882 2.72546,22.66211 -1.05261,33.85681c-0.30689,0.9093 -0.1344,1.98047 -0.52005,3.45153c-1.776,1.44434 -3.21655,2.4137 -4.65717,3.38294z" fill="#0AABD3"/>
  <path id="svg_88" d="m427.71899,1185.25049c1.71888,-1.21973 3.15943,-2.18909 4.9325,-3.21143c0.33246,2.0055 0.33246,4.06409 0.33246,6.8739c4.34051,-3.86071 2.0408,-11.54663 9.6253,-11.51403c1.33402,2.9541 2.2778,5.50537 3.64054,9.18933c-0.73035,1.60949 -2.03705,4.48901 -3.69403,8.14062c2.33648,0.11426 3.88916,0.19031 5.4418,0.26624c-4.12936,4.90625 -8.2587,9.81238 -12.68707,14.86499c-0.69352,-0.73352 -0.84381,-1.97144 -1.52262,-2.43433c-3.90176,-2.65991 -3.19098,-5.97204 -1.75409,-9.57861c0.88456,-2.22022 1.49396,-4.54993 2.55146,-7.84033c-2.88331,0 -4.78867,0 -7.12784,0.00634c-0.29477,-1.49987 -0.15573,-3.00598 0.26159,-4.76269z" fill="#039ECB"/>
  <path id="svg_89" d="m423.86645,1276.63574c0.78007,0.6073 1.42984,1.13928 2.03458,1.09216c1.15219,-0.08947 2.27863,-0.50976 3.75858,-0.76037c0.6791,3.72888 1.01538,7.42517 1.35113,11.57471c-1.76129,1.11792 -3.52209,1.78283 -5.64346,2.45044c-7.02588,-15.65198 -13.68875,-31.30726 -20.36005,-46.95911c-0.69525,-1.63123 -1.44055,-3.24121 -2.16263,-4.86096c0.35328,-0.45838 0.70655,-0.91663 1.05982,-1.37488c1.64313,0.9635 4.09985,1.5304 4.7951,2.95618c3.98386,8.17016 7.63044,16.50964 11.21802,24.86609c1.48743,3.4646 2.54517,7.11364 3.94891,11.01574z" fill="#11B6DB"/>
  <path id="svg_90" d="m448.29279,1194.85205c-1.84787,0.06714 -3.40055,-0.00891 -5.73703,-0.12317c1.65698,-3.65161 2.96368,-6.53113 3.69403,-8.14062c-1.36274,-3.68396 -2.30652,-6.23523 -3.25125,-9.18982c1.41461,-0.72449 2.83017,-1.04566 4.67205,-1.0271c3.05552,1.77441 5.68473,3.2091 8.31391,4.6438c0.00323,0.44104 0.00647,0.8822 -0.27332,1.86987c-0.75503,2.40588 -1.22699,4.26538 -1.69897,6.12476c-1.80811,1.89978 -3.61615,3.79956 -5.71942,5.84228z" fill="#0AABD3"/>
  <path id="svg_91" d="m429.59582,1155.07861c0.39081,2.94629 0.39621,5.98499 0.39365,9.4795c-3.60623,-2.56348 -2.39746,-5.95923 -0.39365,-9.4795z" fill="#039ECB"/>
  <path id="svg_92" d="m454.3609,1188.97009c0.12329,-1.8197 0.59525,-3.6792 1.35236,-5.75427c4.07901,2.67883 1.78628,4.25073 -1.35236,5.75427z" fill="#039ECB"/>
  <path id="svg_93" d="m455.83844,1180.70142c-2.48312,-1.12098 -5.11233,-2.55567 -7.8006,-4.33118c2.51215,1.11182 5.08331,2.56457 7.8006,4.33118z" fill="#039ECB"/>
  <path id="svg_94" d="m594.00244,1319c0.32886,-9.0221 0.65772,-18.04407 1.34461,-27.59778c0.78637,-1.82458 1.21478,-3.11767 1.64312,-4.41064c5.92243,-9.3833 11.45832,-19.04871 17.98609,-27.98999c2.1568,-2.95423 6.68811,-4.61341 10.46692,-5.82691c4.13806,-1.32885 7.28949,0.87195 9.13916,4.91663c1.93194,4.22412 2.46032,8.4187 -0.57904,12.18628c-1.4281,1.77026 -3.36841,3.97717 -6.14002,0.93945c-0.88531,-0.97034 -2.96558,-1.09582 -4.51776,-1.1604c-3.09039,-0.12842 -6.60419,0.6073 -5.07837,-5.57617c-1.96002,1.35474 -3.08856,1.76953 -3.64392,2.578c-3.56598,5.19055 -7.46954,10.23132 -10.30969,15.80652c-1.6366,3.21265 -1.80445,7.3125 -2.07367,11.05322c-0.51801,7.198 -0.68988,14.4231 -0.90314,21.6399c-0.11554,3.9093 -0.02057,7.82495 0.95477,12.04455c0.78003,-1.99255 1.61194,-3.96643 2.3313,-5.98071c3.51227,-9.83399 6.82355,-19.745 10.59815,-29.47669c1.04486,-2.69384 3.43561,-4.86584 5.2088,-7.27734c0.66052,0.323 1.3211,0.64587 1.98163,0.96875c-1.02192,3.47595 -1.62549,7.14624 -3.13495,10.39575c-8.62689,18.57202 -12.66718,38.36218 -15.16089,58.44629c-1.46588,11.80603 -1.39484,23.79822 -2.17993,35.69592c-0.23047,3.4928 -1.02521,6.94837 -1.5614,10.42102c-0.72101,0.07203 -1.44202,0.14405 -2.16309,0.21607c-0.73016,-2.42822 -2.11322,-4.86304 -2.08887,-7.28369c0.22657,-22.52564 -4.55365,-44.38977 -8.53772,-66.3523c-1.53344,-8.45337 -3.59484,-16.81042 -5.34289,-25.22656c-0.18195,-0.87586 0.13287,-1.85474 0.34326,-4.17737c7.17725,5.76734 7.18304,13.52258 9.41858,20.92273c0.48718,1.01892 0.89288,1.34619 1.29864,1.67334c0.2334,-0.52258 0.46686,-1.04516 0.70032,-1.56787z" fill="#0DB0D7"/>
  <path id="svg_95" d="m600.0293,1207.99609c-0.34925,2.7157 -0.69849,5.43128 -1.41492,8.64014c-0.99945,1.59021 -2.00324,2.62305 -2.20502,3.79419c-1.55908,9.04834 -3.17523,18.09729 -4.29608,27.20483c-0.37543,3.05017 -1.64929,3.57007 -4.1084,3.35987c-2.54699,-6.37159 -5.09399,-12.74329 -7.64105,-19.11487c0.19959,-0.31543 0.39911,-0.63086 0.59863,-0.94629c2.24884,1.72607 4.49762,3.45227 6.7464,5.17835c0.3681,-0.11097 0.73615,-0.22181 1.10419,-0.33277c-3.14465,-9.32153 -6.27698,-18.64722 -9.44318,-27.96142c-0.7478,-2.19983 -1.64813,-4.34778 -2.41083,-6.54297c-1.37493,-3.95728 -3.00555,-7.16077 -7.63824,-8.8252c-5.97595,-2.14697 -6.22772,-4.63513 -3.25726,-10.24353c0.82715,-1.56177 0.55871,-3.70386 0.81933,-5.79163c7.67481,-4.08459 13.25861,-3.97961 16.05017,0.47864c3.72132,5.943 1.93421,13.44458 -4.62823,18.87976c3.65845,6.68702 7.33063,13.39905 11.21478,20.49842c1.98102,-3.67005 3.59046,-6.65174 5.69245,-9.94996c1.93414,0.34717 3.37567,1.01087 4.81726,1.67444z" fill="#0CAED6"/>
  <path id="svg_96" d="m618.0141,1175.01746c-5.71625,8.03674 -13.88886,14.35656 -17.35516,24.60778c-1.82654,-0.9696 -3.24738,-2.29736 -4.66822,-3.62524c-0.33319,-19.78577 -0.18713,-39.59753 -1.26159,-59.3429c-0.37214,-6.83874 -3.87928,-13.48364 -5.7508,-20.27319c-1.05529,-3.828 -1.69604,-7.77026 -2.52344,-11.66113c0.73774,-0.35266 1.47547,-0.70545 2.2132,-1.05811c1.64777,2.0531 3.29553,4.1062 5.25421,6.54676c7.88349,0.62414 3.17676,-8.05823 6.61212,-11.07215c3.58771,4.00647 5.2815,16.29004 2.32502,20.28357c-2.74457,3.7074 -3.55951,7.63416 -2.76703,11.72644c3.10064,16.01233 0.06439,32.0979 0.93011,48.12207c0.07642,1.41504 0.22852,2.82581 0.39038,4.78113c4.63031,-3.60559 8.737,-6.80347 13.53644,-10.0293c1.4834,0.31275 2.27411,0.65345 3.06476,0.99427z" fill="#0DB0D7"/>
  <path id="svg_97" d="m618.31165,1174.86926c-1.0882,-0.19262 -1.87891,-0.53332 -3.01575,-0.88562c1.15167,-1.98047 2.51123,-4.07556 4.17169,-5.89612c6.54547,-7.17614 10.93506,-15.10742 10.69183,-25.26477c-0.05755,-2.40319 2.0445,-6.95581 2.9983,-6.91479c3.72412,0.15991 7.69689,1.20032 10.97955,3.0022c2.99213,1.64233 1.354,4.51586 0.52997,7.4215c-1.93213,6.81299 -9.06311,7.81812 -12.65912,12.60059c-0.65576,0.87207 -2.55628,1.26367 -2.65186,2.0304c-0.84747,6.79956 -7.09796,9.24829 -11.04461,13.90661z" fill="#0CAED6"/>
  <path id="svg_98" d="m583.9953,1283.03418c-7.22675,-1.37866 -11.37762,-6.33118 -13.62128,-12.75757c-1.42956,-4.09448 -0.7464,-8.20666 3.96149,-10.4375c4.07617,-1.93139 9.42206,-1.16015 12.11035,2.20398c1.17645,1.47241 1.72345,3.44788 2.55383,5.94739c-1.98181,5.4071 -0.93475,11.12085 -5.00439,15.0437z" fill="#0CAED6"/>
  <path id="svg_99" d="m588.00586,1251.36304c2.45813,-0.15772 3.73199,-0.67762 4.10742,-3.72779c1.12085,-9.10754 2.737,-18.15649 4.29608,-27.20483c0.20178,-1.17114 1.20557,-2.20398 2.20172,-3.37695c-0.01928,5.94311 -0.44256,11.9602 -0.75287,17.98315c-0.06402,1.24353 0.29291,2.50891 0.45588,3.76416c1.04059,-1.10388 2.08123,-2.20776 3.75366,-3.59326c3.97156,-2.96301 7.28497,-5.67847 10.66779,-8.30457c0.98565,-0.76526 2.16918,-1.27575 3.26202,-1.90295c-0.29608,5.53394 -2.60718,9.45154 -7.17401,13.1438c-5.28101,4.26965 -9.1684,10.26501 -13.64881,15.52136c-0.92572,1.08594 -1.79852,2.21704 -3.38849,4.18457c-1.53424,-2.48388 -2.65685,-4.30139 -3.78039,-6.48669z" fill="#039ECB"/>
  <path id="svg_100" d="m616.20081,1224.72729c-1.29609,0.89991 -2.47962,1.4104 -3.46527,2.17566c-3.38282,2.6261 -6.69623,5.34156 -10.39386,8.05994c3.20526,-4.6814 6.9201,-9.29578 10.26281,-14.16565c1.51691,-2.21008 2.83667,-4.82996 3.30231,-7.43274c1.11188,-6.21557 4.26227,-9.52014 10.28766,-9.02637c1.35364,0.11109 3.22619,2.22425 3.64532,3.74939c1.01679,3.70008 -2.75915,10.5365 -6.45501,12.61866c-2.30073,1.29614 -4.65216,2.50207 -7.18396,4.02111z" fill="#0AABD3"/>
  <path id="svg_101" d="m584.03101,1283.37708c4.03393,-4.26575 2.98687,-9.9795 4.98034,-15.01526c6.00916,0.95337 7.40283,4.58947 4.4801,9.67016c-1.86364,3.23963 -2.81005,7.00684 -4.53997,11.50574c-1.87165,-2.22913 -3.37818,-4.02344 -4.92047,-6.16064z" fill="#039ECB"/>
  <path id="svg_102" d="m595.73852,1196.22217c1.67304,1.10571 3.09388,2.43347 4.88074,3.76221c0.2367,2.48547 0.10724,4.97009 -0.30603,7.73315c-1.72552,-0.38501 -3.16705,-1.04871 -4.96093,-1.71484c-0.19013,-3.18799 -0.02802,-6.37317 0.38622,-9.78052z" fill="#039ECB"/>
  <path id="svg_103" d="m596.64758,1287.02978c-0.08575,1.25477 -0.51416,2.54786 -1.30285,3.90357c0.07983,-1.24646 0.52002,-2.55591 1.30285,-3.90357z" fill="#039ECB"/>
  <path id="svg_104" d="m593.67334,1318.9989c0.09564,0.52381 -0.13782,1.04639 -0.37122,1.56897c-0.40576,-0.32715 -0.81146,-0.65442 -1.24511,-1.28467c0.41046,-0.29699 0.84887,-0.29114 1.61633,-0.2843z" fill="#039ECB"/>
  <path id="svg_105" d="m370.6008,536.29913c0.27032,1.77588 0.2081,3.72547 0.22067,6.08509c-0.13455,-1.69709 -0.3439,-3.80426 -0.22067,-6.08509z" fill="#FEFEFE"/>
  <path id="svg_106" d="m396.83649,436.04428c-0.32947,-0.01901 -0.58118,-0.16873 -0.82501,-1.01556c-0.80549,-1.33219 -1.54102,-2.098 -2.27652,-2.8638c0,0 0.09258,-0.07782 0.04788,-0.29389c-0.34714,-0.41501 -0.64963,-0.61395 -0.95209,-0.81292c0,0 0.09473,-0.00037 0.11298,-0.37159c-0.31412,-6.53427 -0.6286,-12.69839 -1.00721,-18.85858c-0.03705,-0.60208 -0.46948,-1.17984 -0.71841,-1.76889c1.70789,-6.21731 6.3009,-9.22439 12.74866,-10.62369c4.49252,0.98417 8.34375,1.71073 12.195,2.43726c0,0 -0.09594,0.04434 0.025,0.284c0.70419,0.43249 1.28747,0.62533 1.87073,0.81814c0,0 -0.05133,0.02771 0.05987,0.24094c0.40894,0.39139 0.70663,0.56958 1.00433,0.7478c0,0 -0.08426,-0.0162 -0.06912,0.28583c0.71735,1.04828 1.41959,1.79452 2.10996,2.56082c-0.01187,0.02002 -0.02573,-0.01883 -0.04865,0.32089c0.36545,0.82309 0.75382,1.30649 1.08246,1.80658c-0.05969,0.01673 -0.05594,-0.10724 -0.10193,0.28861c0.41443,1.4653 0.87479,2.53476 1.27551,3.69061c-0.05969,0.0864 -0.24487,-0.01273 -0.28778,0.45004c-0.34985,5.23581 -0.65676,10.00888 -0.95575,14.72187c0.00797,-0.06006 0.12091,-0.01612 -0.19189,0.11462c-0.45053,0.76034 -0.58832,1.38995 -0.74661,1.95773c-0.02054,-0.06183 0.10846,-0.04333 -0.21036,0.06626c-0.48666,0.72912 -0.65448,1.34869 -0.8334,1.90338c-0.01111,-0.06482 0.11865,-0.04316 -0.18955,0.07385c-0.50095,0.71863 -0.69369,1.32031 -0.88641,1.922c0,0 -0.03156,-0.08011 -0.24274,0.02038c-0.36847,0.42023 -0.52579,0.73993 -0.68311,1.05963c-0.00003,0 0.03367,-0.11761 -0.28366,-0.01013c-5.00812,3.53437 -10.38626,4.12403 -15.96212,3.89737c0,0 0.09317,0.04044 -0.06736,-0.21988c-0.77206,-0.41974 -1.3836,-0.57916 -1.99517,-0.73858c0,0.00003 0.09622,-0.02588 0.00317,-0.24946c-0.41892,-0.3879 -0.74478,-0.55227 -1.07062,-0.71667c0,0 0.1272,-0.02179 0.0025,-0.2738c-0.72732,-0.45169 -1.32995,-0.65143 -1.93258,-0.85117z" fill="#A6E3FC"/>
  <path id="svg_107" d="m444.44305,430.08051c-0.56985,1.96154 -1.05242,3.52136 -1.57403,5.4302c-0.4177,1.02722 -0.79645,1.70548 -1.42963,2.54221c-0.29919,-0.17151 -0.47088,-0.54746 -0.37048,-0.82483c3.62704,-10.01816 2.49432,-20.38577 2.55051,-30.93738c2.35888,7.57721 2.79113,15.45126 0.82363,23.7898z" fill="#124285"/>
  <path id="svg_108" d="m422.00861,406.98578c4.39438,2.26657 3.82937,6.64477 3.88305,10.3515c0.08631,5.96155 -0.60211,11.93161 -5.66943,16.19177c-0.16422,-0.62179 -0.06183,-1.03164 0.04059,-1.44147c-0.00003,0 -0.12979,-0.02166 0.13885,-0.12823c0.47736,-0.68494 0.68604,-1.26324 0.89469,-1.84158c0,0 -0.129,-0.0185 0.15725,-0.12601c0.45542,-0.71136 0.62455,-1.31525 0.7937,-1.91913c0,0 -0.11294,-0.04394 0.17646,-0.24188c0.42666,-5.10748 0.56396,-10.01706 0.70129,-14.92664c0,0 0.18518,0.09913 0.28192,-0.3518c-0.35766,-1.54123 -0.8121,-2.6316 -1.26657,-3.72193c0,0 -0.00375,0.12397 0.00986,-0.20416c-0.06583,-0.73788 -0.14523,-1.1477 -0.20355,-1.57788c0.02111,-0.02035 0.06189,-0.06256 0.06189,-0.06256z" fill="#124285"/>
  <path id="svg_109" d="m391.09558,410.43201c0.37146,0.21609 0.80389,0.79385 0.84094,1.39593c0.37861,6.16019 0.69309,12.32431 0.99292,18.90372c-4.36554,-6.01554 -4.3309,-12.86047 -1.83386,-20.29965z" fill="#BFF3FB"/>
  <path id="svg_110" d="m402.16339,439.42075c5.30902,-0.10025 10.68716,-0.68991 15.74439,-4.18781c-3.75165,5.47678 -9.50559,5.37238 -15.74439,4.18781z" fill="#BFF3FB"/>
  <path id="svg_111" d="m415.97028,401.57257c-3.65976,-0.42648 -7.51099,-1.15304 -11.64145,-2.13519c3.63052,0.44125 7.54025,1.13818 11.64145,2.13519z" fill="#BFF3FB"/>
  <path id="svg_112" d="m439.85626,441.52835c-0.42083,0.68659 -0.78177,1.08191 -1.38522,1.60379c0.19766,-0.86972 0.63788,-1.86606 1.42505,-2.94983c0.238,0.29328 0.12906,0.67401 -0.03983,1.34604z" fill="#124285"/>
  <path id="svg_113" d="m421.17438,406.79013c-0.70221,-0.74628 -1.40445,-1.49252 -2.1051,-2.58035c0.00155,-0.34152 0.3688,-0.2349 0.64581,0.07538c0.57226,0.52618 0.86758,0.74203 1.16287,0.95791c0,0 -0.00857,-0.16815 -0.02566,0.13931c0.09594,0.67426 0.20901,1.04099 0.32208,1.40775z" fill="#BFF3FB"/>
  <path id="svg_114" d="m393.7699,432.48474c0.70056,0.44598 1.43609,1.21179 2.18014,2.3255c-0.70941,-0.43658 -1.4273,-1.22113 -2.18014,-2.3255z" fill="#BFF3FB"/>
  <path id="svg_115" d="m418.24475,342.19318c0.82343,-0.20588 1.88043,-0.09394 3.12494,0.3739c-0.83881,0.2186 -1.86505,0.08124 -3.12494,-0.3739z" fill="#124285"/>
  <path id="svg_116" d="m399.99536,438.40332c0.45023,-0.10852 1.06177,0.0509 1.80683,0.51361c-0.45951,0.12033 -1.0525,-0.06268 -1.80683,-0.51361z" fill="#BFF3FB"/>
  <path id="svg_117" d="m440.96387,438.2178c0.12109,0.47562 -0.07593,1.0658 -0.54206,1.81775c-0.10473,-0.4599 0.05961,-1.08151 0.54206,-1.81775z" fill="#124285"/>
  <path id="svg_118" d="m397.00055,436.31805c0.43857,-0.07403 1.0412,0.12571 1.75177,0.63971c-0.45731,0.08753 -1.02252,-0.13922 -1.75177,-0.63971z" fill="#BFF3FB"/>
  <path id="svg_119" d="m417.88531,402.72772c-0.41107,0.05423 -0.99435,-0.13861 -1.70504,-0.62353c0.42599,-0.06925 0.97943,0.15359 1.70504,0.62353z" fill="#BFF3FB"/>
  <path id="svg_120" d="m421.16254,406.81015c-0.10123,-0.38678 -0.2143,-0.75351 -0.39057,-1.40262c0.34784,0.1279 0.75894,0.53812 1.20334,1.26328c0.0333,0.31497 -0.00748,0.35718 -0.22415,0.30355c-0.21671,-0.05361 -0.61435,-0.18304 -0.61435,-0.18304c0,0 0.01386,0.03885 0.02573,0.01883z" fill="#124285"/>
  <path id="svg_121" d="m419.95459,432.20459c0.20581,0.29282 0.10342,0.70267 -0.07645,1.42047c-0.07748,0.30795 -0.44861,0.38623 -0.6293,0.44388c0.01206,-0.54404 0.2048,-1.14572 0.70575,-1.86435z" fill="#BFF3FB"/>
  <path id="svg_122" d="m398.80356,437.46387c0.28885,-0.13022 0.61471,0.03415 1.0267,0.47143c-0.27249,0.12299 -0.6311,-0.02691 -1.0267,-0.47143z" fill="#BFF3FB"/>
  <path id="svg_123" d="m392.90698,431.33887c0.22623,-0.08179 0.52872,0.11715 0.89777,0.58853c-0.22946,0.07898 -0.52551,-0.11441 -0.89777,-0.58853z" fill="#BFF3FB"/>
  <path id="svg_124" d="m418.42444,435.15057c-0.12479,-0.26367 0.03253,-0.58337 0.44336,-1.01123c0.11526,0.24631 -0.02301,0.60077 -0.44336,1.01123z" fill="#BFF3FB"/>
  <path id="svg_125" d="m420.80768,404.96277c-0.22501,0.06442 -0.52033,-0.15143 -0.9054,-0.63877c0.21854,-0.06149 0.52683,0.1485 0.9054,0.63877z" fill="#124285"/>
  <path id="svg_126" d="m419.02801,403.71008c-0.20401,0.0752 -0.5017,-0.10299 -0.90756,-0.52337c0.19916,-0.07151 0.5065,0.09921 0.90756,0.52337z" fill="#BFF3FB"/>
  <path id="svg_127" d="m511.19189,423.9769c-1.28726,5.17569 -2.38729,10.44781 -7.87188,13.95263c-5.65131,-0.19986 -10.56208,-0.50964 -15.47281,-0.81945c0,0 0.08996,-0.03363 -0.00107,-0.25241c-0.40927,-0.3967 -0.72748,-0.57462 -1.04568,-0.75257c0,0 0.1221,-0.00955 0.02926,-0.22473c-0.41409,-0.38953 -0.73535,-0.5639 -1.05658,-0.73831c0,0 0.10275,-0.04251 0.03217,-0.26239c-0.3815,-0.41202 -0.69248,-0.60416 -1.00342,-0.7963c0,0 0.09973,0.00251 0.10907,-0.30044c-0.68729,-1.11218 -1.38388,-1.92142 -2.08051,-2.73062c0,0 0.09601,-0.00925 0.09467,-0.29108c-0.3718,-0.7597 -0.74222,-1.23758 -1.11261,-1.71545c0,0 0.09439,-0.02817 0.12512,-0.41443c-0.08426,-1.69687 -0.27475,-3.00586 -0.30255,-4.3183c-0.27832,-13.15009 -0.65799,-26.30014 -0.71948,-39.45157c-0.02158,-4.6167 0.75668,-9.23718 1.1698,-13.85593c0.07071,-0.57068 0.14142,-1.14138 0.75195,-2.01681c0.70474,-0.92078 0.86963,-1.53681 1.03455,-2.15283c0.00003,0 0.03668,0.10626 0.28173,-0.02976c0.40021,-0.74896 0.55533,-1.36197 0.71042,-1.97494c0,0 0.04267,0.10293 0.2873,-0.02607c0.41519,-0.73348 0.58578,-1.33795 0.75637,-1.94244c0,0 0.00571,0.09491 0.31641,0.06961c0.77429,-0.70666 1.23792,-1.388 1.70154,-2.06933c0,0 0.05121,0.07214 0.43658,0.08496c4.83997,-0.33002 9.29453,-0.67286 13.74912,-1.01569c0,0 -0.07987,0.01322 0.02426,0.23221c0.4277,0.37076 0.75131,0.52252 1.07495,0.67429c0,-0.00004 -0.12207,-0.01282 0.00897,0.25146c0.73893,0.4339 1.34677,0.60348 1.95462,0.77304c0,0 -0.08261,0.04999 -0.01049,0.27078c0.37323,0.42191 0.67437,0.62305 0.97549,0.82419c0,0 -0.08664,-0.00189 -0.07526,0.2847c0.39151,0.75445 0.77167,1.22238 1.15183,1.69031c0,0 -0.12967,0.03671 -0.05689,0.22455c0.34516,0.40222 0.61756,0.61663 0.88996,0.83105c0,-0.00003 -0.05301,0.00736 -0.01819,0.30237c0.41467,0.74676 0.79456,1.19849 1.17444,1.65018c0,0 -0.09702,0.03332 -0.12564,0.3602c0.82358,2.10192 1.67581,3.87692 2.52807,5.65194c0.15708,1.077 0.31418,2.15396 0.52735,4.03519c0.11029,1.88913 0.16449,2.97403 0.17114,4.44168c0.14728,1.91006 0.34216,3.43741 0.50317,5.40842c-0.56164,12.34185 -1.08944,24.23996 -1.61725,36.13809z" fill="#A6E3FC"/>
  <path id="svg_128" d="m481.90125,371.34378c-0.22898,4.28052 -1.00724,8.901 -0.98566,13.5177c0.06149,13.15143 0.44116,26.30148 0.71948,39.45157c0.0278,1.31244 0.21829,2.62143 0.3064,4.3674c-1.00742,-3.67358 -1.98792,-7.78253 -3.06354,-12.67972c-0.17111,-1.54046 -0.24716,-2.29266 -0.25232,-3.29883c-0.09198,-0.55746 -0.25491,-0.86099 -0.44537,-1.60308c0.17056,-8.3165 0.36862,-16.1944 0.56671,-24.0723c0.99005,-5.11484 1.9801,-10.22968 3.1543,-15.68274z" fill="#BFF3FB"/>
  <path id="svg_129" d="m512.35352,382.04764c-0.0542,-1.0849 -0.1084,-2.1698 -0.11689,-3.66068c0.61914,-0.15838 1.69843,0.09919 1.69373,0.33533c-0.29071,14.67593 -0.66327,29.35031 -1.08044,44.02338c-0.01032,0.363 -0.60468,0.70938 -1.2923,1.14737c0.16208,-11.81427 0.68988,-23.71238 1.31225,-36.45902c-0.10907,-2.36114 -0.31268,-3.87375 -0.51635,-5.38638z" fill="#124285"/>
  <path id="svg_130" d="m478.37003,387.13586c0.17883,7.76856 -0.01923,15.64646 -0.22681,24.21833c0.13083,0.99652 0.27115,1.2991 0.41147,1.60168c0.07608,0.7522 0.15213,1.5044 0.21289,2.63547c-0.6008,-0.45459 -1.68323,-1.28119 -1.69486,-2.12259c-0.11316,-8.20758 -0.06518,-16.41782 0.00809,-24.62665c0.00479,-0.53497 0.59464,-1.0647 1.28922,-1.70624z" fill="#124285"/>
  <path id="svg_131" d="m488.05096,437.41773c4.70697,0.00216 9.61774,0.31194 14.97571,0.65051c-4.71719,3.64645 -9.75357,2.02072 -14.97571,-0.65051z" fill="#BFF3FB"/>
  <path id="svg_132" d="m501.86511,359.64996c-4.20834,0.62512 -8.6629,0.96796 -13.54706,1.29563c3.86167,-3.04508 8.4484,-3.47864 13.54706,-1.29563z" fill="#BFF3FB"/>
  <path id="svg_133" d="m511.53964,373.62763c-0.78442,-1.44913 -1.63665,-3.22413 -2.46475,-5.37714c0.81509,1.43179 1.60602,3.24151 2.46475,5.37714z" fill="#BFF3FB"/>
  <path id="svg_134" d="m487.62756,360.9469c-0.16552,0.59741 -0.62915,1.27875 -1.4425,1.95831c0.14828,-0.62601 0.64636,-1.25018 1.4425,-1.95831z" fill="#BFF3FB"/>
  <path id="svg_135" d="m482.90021,431.36639c0.62686,0.49512 1.32345,1.30436 1.98999,2.46189c-0.66013,-0.48374 -1.29016,-1.31577 -1.98999,-2.46189z" fill="#BFF3FB"/>
  <path id="svg_136" d="m484.59259,364.98978c0.11636,0.4544 -0.03876,1.06741 -0.49512,1.81814c-0.12631,-0.46133 0.04868,-1.06045 0.49512,-1.81814z" fill="#BFF3FB"/>
  <path id="svg_137" d="m505.02005,361.58777c-0.45374,0.10592 -1.06158,-0.06366 -1.77054,-0.55109c0.47141,-0.12002 1.04392,0.07779 1.77054,0.55109z" fill="#BFF3FB"/>
  <path id="svg_138" d="m485.6405,363.02289c0.09662,0.4443 -0.07397,1.04877 -0.54474,1.78628c-0.1076,-0.45337 0.08496,-1.03973 0.54474,-1.78628z" fill="#BFF3FB"/>
  <path id="svg_139" d="m507.17535,364.62476c-0.33978,-0.15946 -0.71994,-0.62739 -1.09997,-1.42365c0.35327,0.15283 0.70645,0.634 1.09997,1.42365z" fill="#BFF3FB"/>
  <path id="svg_140" d="m509.16458,367.64008c-0.33941,-0.15039 -0.7193,-0.60212 -1.12118,-1.37238c0.34552,0.14465 0.71313,0.60785 1.12118,1.37238z" fill="#BFF3FB"/>
  <path id="svg_141" d="m483.60092,366.99713c0.10605,0.4548 -0.05884,1.07083 -0.52603,1.82404c-0.11648,-0.46283 0.06927,-1.06281 0.52603,-1.82404z" fill="#BFF3FB"/>
  <path id="svg_142" d="m481.85107,429.35471c0.33182,0.16894 0.70224,0.64682 1.06574,1.45401c-0.34705,-0.16211 -0.6871,-0.6536 -1.06574,-1.45401z" fill="#BFF3FB"/>
  <path id="svg_143" d="m485.82144,435.43253c0.27292,-0.11606 0.59418,0.05831 0.9943,0.50747c-0.26276,0.11087 -0.60437,-0.05307 -0.9943,-0.50747z" fill="#BFF3FB"/>
  <path id="svg_144" d="m486.86859,436.38373c0.25006,-0.10068 0.56827,0.07724 0.97931,0.52191c-0.24182,0.09671 -0.57648,-0.0733 -0.97931,-0.52191z" fill="#BFF3FB"/>
  <path id="svg_145" d="m484.87314,434.36661c0.23968,-0.0911 0.55066,0.10104 0.93008,0.56863c-0.24063,0.0885 -0.54974,-0.09845 -0.93008,-0.56863z" fill="#BFF3FB"/>
  <path id="svg_146" d="m503.16946,360.54913c-0.28253,0.13785 -0.60614,-0.01391 -1.03024,-0.42498c0.26273,-0.12775 0.62595,0.00381 1.03024,0.42498z" fill="#BFF3FB"/>
  <path id="svg_147" d="m506.05975,362.68762c-0.22171,0.06946 -0.52285,-0.13168 -0.90399,-0.60125c0.2215,-0.06873 0.52304,0.13095 0.90399,0.60125z" fill="#BFF3FB"/>
  <path id="svg_148" d="m507.974,365.72504c-0.1976,0.04937 -0.47,-0.16504 -0.82233,-0.63428c0.19586,-0.04642 0.47168,0.16202 0.82233,0.63428z" fill="#BFF3FB"/>
  <path id="svg_149" d="m638.16321,446.03967c-6.83338,-3.1336 -8.87238,-10.13348 -6.30884,-20.47641c2.44196,-9.85254 12.53833,-13.06384 20.07263,-6.38455c4.23023,3.75024 5.38324,13.99106 2.24646,19.95401c-2.81781,5.35684 -9.3927,8.30206 -16.01025,6.90695z" fill="#A7E4FC"/>
  <path id="svg_150" d="m560.59534,381.0946c-2.05817,-6.75302 -3.50122,-13.54669 -0.26947,-19.61355c2.47845,-4.6528 7.31768,-7.38388 13.09796,-6.33335c6.89227,1.25266 8.9555,6.7468 10.30145,12.62131c1.51172,6.59793 -0.82513,14.28882 -5.1958,16.59693c-4.85687,2.56485 -14.20386,2.68075 -17.93414,-3.27134z" fill="#A7E4FC"/>
  <path id="svg_151" d="m423.08215,413.36688c-0.09442,4.44681 -0.23172,9.35639 -0.66638,14.52393c0.00962,-4.51505 0.31653,-9.28812 0.66638,-14.52393z" fill="#BFF3FB"/>
  <path id="svg_152" d="m422.09442,409.22623c0.50046,0.69448 0.9549,1.78485 1.37226,3.23971c-0.49747,-0.70495 -0.95783,-1.77441 -1.37226,-3.23971z" fill="#BFF3FB"/>
  <path id="svg_153" d="m420.97754,430.22736c0.11017,0.46875 -0.09851,1.04705 -0.56476,1.79681c-0.08972,-0.44812 0.0781,-1.06769 0.56476,-1.79681z" fill="#BFF3FB"/>
  <path id="svg_154" d="m421.11389,407.13104c0.02292,-0.33972 0.42056,-0.21029 0.61615,-0.13629c0.275,0.48377 0.3544,0.89359 0.47992,1.61478c-0.34225,-0.172 -0.73062,-0.6554 -1.09607,-1.47849z" fill="#BFF3FB"/>
  <path id="svg_155" d="m421.93451,428.20337c0.14365,0.47314 -0.02548,1.07703 -0.46036,1.85022c-0.12796,-0.46027 0.00983,-1.08988 0.46036,-1.85022z" fill="#BFF3FB"/>
  <path id="svg_156" d="m512.30597,382.43039c0.25122,1.12988 0.45483,2.64249 0.59772,4.55991c-0.25556,-1.1225 -0.45044,-2.64985 -0.59772,-4.55991z" fill="#205594"/>
  <path id="svg_157" d="m478.62564,412.7019c-0.21127,-0.04861 -0.35159,-0.35119 -0.45489,-0.90911c0.19995,0.04812 0.36288,0.35165 0.45489,0.90911z" fill="#205594"/>
  <ellipse id="svg_158" cy="85.59999" cx="15.99998" stroke="#000" fill="#fff"/>
 </g>
</svg>